<svg width="178" height="63" viewBox="0 0 178 63" fill="none" xmlns="http://www.w3.org/2000/svg">
<path d="M172.374 28.0186L112.084 2.57855C111.244 2.22855 110.404 3.06855 110.754 3.90855L118.084 21.1586C118.084 21.1586 118.074 21.2286 118.034 21.2286H12.8937C7.5437 21.2286 2.84371 25.2686 2.52371 30.6086C2.17371 36.4086 6.77369 41.2286 12.5037 41.2286H118.034C118.034 41.2286 118.094 41.2686 118.084 41.2986L110.754 58.5486C110.394 59.3886 111.244 60.2286 112.084 59.8786L172.374 34.4386C175.224 33.2386 175.224 29.1986 172.374 27.9986V28.0186Z" fill="#F9CB30"/>
<path d="M111.674 62.4685C110.764 62.4685 109.864 62.1085 109.194 61.4385C108.174 60.4185 107.884 58.9085 108.444 57.5885L114.324 43.7385H12.4937C9.06371 43.7385 5.74371 42.3085 3.39371 39.8085C1.00371 37.2685 -0.18629 33.9585 0.0237101 30.4685C0.42371 23.8885 6.07371 18.7385 12.8937 18.7385H114.334L108.454 4.88853C107.894 3.56852 108.184 2.04852 109.204 1.03852C110.214 0.018519 111.734 -0.281475 113.054 0.278525L173.344 25.7185C175.604 26.6685 177.004 28.7885 177.004 31.2385C177.004 33.6885 175.604 35.8085 173.344 36.7585L113.054 62.1885C112.614 62.3785 112.144 62.4685 111.684 62.4685H111.674ZM12.8837 23.7285C8.7037 23.7285 5.24369 26.8185 5.00369 30.7585C4.87369 32.8585 5.59371 34.8485 7.02371 36.3685C8.45371 37.8885 10.3937 38.7285 12.4837 38.7285H119.364L120.894 40.9985L120.364 42.2885L114.474 56.1485L171.384 32.1385C171.914 31.9185 171.994 31.4685 171.994 31.2185C171.994 30.9685 171.914 30.5285 171.384 30.2985L114.474 6.28852L120.894 21.3985L119.414 23.6885L118.024 23.7085H12.8837V23.7285Z" fill="black"/>
</svg>
