<?xml version="1.0" encoding="UTF-8"?>
<svg id="_Слой_1" data-name="Слой 1" xmlns="http://www.w3.org/2000/svg" viewBox="0 0 194.76 271.93">
  <defs>
    <style>
      .cls-1 {
        fill: #fff;
      }

      .cls-2 {
        fill: #f7c930;
      }
    </style>
  </defs>
  <g>
    <path class="cls-2" d="M134.56,82.49v10.21h24.51v-10.73c0-19.43-7.87-37.01-20.6-49.74-12.73-12.73-30.31-20.6-49.74-20.6-38.85,0-70.34,31.49-70.34,70.34v31.39s21.12,.56,24.51,.65v-31.53c0-25.32,20.52-45.83,45.83-45.83,12.66,0,24.12,5.13,32.41,13.42,8.29,8.29,13.42,19.75,13.42,32.41Z"/>
    <path d="M42.89,116.52s-.04,0-.07,0l-24.51-.65c-1.35-.04-2.43-1.14-2.43-2.5v-31.39C15.88,41.81,48.56,9.13,88.72,9.13c19.46,0,37.75,7.58,51.51,21.33,13.76,13.76,21.33,32.05,21.33,51.51v10.73c0,1.38-1.12,2.5-2.5,2.5h-24.51c-1.38,0-2.5-1.12-2.5-2.5v-10.21c0-11.58-4.51-22.46-12.69-30.64-8.18-8.18-19.07-12.69-30.64-12.69-23.89,0-43.33,19.44-43.33,43.33v31.53c0,.67-.27,1.32-.76,1.79-.47,.46-1.09,.71-1.74,.71Zm-22.01-5.59l19.51,.52v-28.96c0-26.65,21.68-48.33,48.33-48.33,12.91,0,25.05,5.03,34.18,14.16,9.13,9.13,14.16,21.27,14.16,34.18v7.71h19.51v-8.23c0-18.12-7.06-35.16-19.87-47.97-12.81-12.81-29.85-19.87-47.97-19.87-37.41,0-67.84,30.43-67.84,67.84v28.96Z"/>
  </g>
  <g>
    <rect class="cls-2" x="2.5" y="109.69" width="172.45" height="159.74"/>
    <path d="M174.95,271.93H2.5C1.12,271.93,0,270.81,0,269.43V109.69c0-1.38,1.12-2.5,2.5-2.5H174.95c1.38,0,2.5,1.12,2.5,2.5v159.74c0,1.38-1.12,2.5-2.5,2.5Zm-169.95-5H172.45V112.19H5v154.74Z"/>
  </g>
  <g>
    <path d="M172.47,29.55c-.7,0-1.39-.29-1.88-.85-.91-1.04-.81-2.62,.23-3.53l17.04-14.94c1.04-.91,2.62-.81,3.53,.23,.91,1.04,.81,2.62-.23,3.53l-17.04,14.94c-.47,.42-1.06,.62-1.65,.62Z"/>
    <path d="M192.27,49.24c-.17,0-.34-.02-.51-.05l-17.75-3.7c-1.35-.28-2.22-1.61-1.94-2.96,.28-1.35,1.61-2.22,2.96-1.94l17.75,3.7c1.35,.28,2.22,1.61,1.94,2.96-.25,1.18-1.29,1.99-2.44,1.99Z"/>
    <path d="M158.25,21.59c-.18,0-.36-.02-.55-.06-1.35-.3-2.2-1.64-1.9-2.98l3.7-16.59c.3-1.35,1.63-2.2,2.98-1.9,1.35,.3,2.2,1.64,1.9,2.98l-3.7,16.59c-.26,1.16-1.29,1.96-2.44,1.96Z"/>
  </g>
  <g>
    <path class="cls-1" d="M113.68,173.68c0,9.88-5.75,18.42-14.07,22.46l5.45,34.26h-31.77l4.54-34.26c-8.32-4.04-14.07-12.58-14.07-22.46,0-13.79,11.17-24.96,24.96-24.96s24.96,11.17,24.96,24.96Z"/>
    <path d="M105.06,232.91h-31.77c-.72,0-1.41-.31-1.88-.85-.47-.54-.69-1.26-.6-1.98l4.31-32.54c-8.48-4.85-13.86-14.02-13.86-23.86,0-15.14,12.32-27.46,27.46-27.46s27.46,12.32,27.46,27.46c0,9.82-5.37,18.98-13.82,23.83l5.17,32.5c.12,.72-.09,1.46-.57,2.02-.47,.56-1.17,.88-1.9,.88Zm-28.91-5h25.99l-4.99-31.37c-.17-1.09,.39-2.16,1.38-2.64,7.69-3.73,12.66-11.67,12.66-20.21,0-12.38-10.08-22.46-22.46-22.46s-22.46,10.08-22.46,22.46c0,8.55,4.97,16.48,12.66,20.21,.97,.47,1.53,1.51,1.39,2.58l-4.16,31.43Z"/>
  </g>
</svg>