<?xml version="1.0" encoding="UTF-8"?>
<svg id="_Слой_1" data-name="Слой 1" xmlns="http://www.w3.org/2000/svg" viewBox="0 0 277.87 271.03">
  <defs>
    <style>
      .cls-1 {
        fill: #fff;
      }

      .cls-2 {
        fill: #f7c930;
      }
    </style>
  </defs>
  <g>
    <g>
      <g>
        <rect class="cls-2" x="2.5" y="157.37" width="272.87" height="111.17"/>
        <path class="cls-2" d="M275.37,271.03H2.5C1.12,271.03,0,269.91,0,268.53v-111.17c0-1.38,1.12-2.5,2.5-2.5H275.37c1.38,0,2.5,1.12,2.5,2.5v111.17c0,1.38-1.12,2.5-2.5,2.5ZM5,266.03H272.87v-106.17H5v106.17Z"/>
      </g>
      <path d="M22.21,251.41c-.45,0-.91-.12-1.32-.38-1.17-.73-1.53-2.27-.79-3.44,4.29-6.87,8.42-13.83,12.38-20.89-.1-.08-.19-.16-.29-.25-9.62-8.41-11.93-21.94-12.86-32.79-2.18-25.45,.35-50.78,7.52-75.3,3.13-10.71,8-24.35,17.92-34.78,3.29-3.46,12.02-11.25,22.12-8.76,9.69,2.39,14.47,12.86,15.72,21.87,2.23,16.11-2.54,32.11-7.2,45.84-9.68,28.55-21.88,56.26-36.4,82.69,4.57,2.68,10.28,4.09,16.53,4,7.88-.1,15.54-2.44,22-4.7,12.45-4.37,23.27-9.74,32.35-16.04-5.77-6.67-9.7-15.42-10.68-24.81-1.87-17.75,5.74-33.91,12.45-44.33,6.85-10.64,15.63-15.62,23.49-13.32,6.85,2,11.62,9.23,12.77,19.34,2.08,18.3-5.24,38.43-19.58,53.84-3.24,3.48-6.85,6.78-10.82,9.87,3.21,2.72,6.83,4.77,10.71,5.94,8.53,2.56,18.94,1.17,28.54-3.81,9.36-4.85,17.22-12.42,23.67-19.19l.19-.2c2.74-2.87,5.83-6.12,10.02-7.6,4.66-1.65,11.08-.33,13.33,4.68,1.71,3.83,.32,7.88-.92,11.45-1.27,3.68-1.98,6.01-.58,7.5,2.44,2.6,8.39-1.43,9.56-2.26l49.86-35.59c1.12-.8,2.68-.54,3.49,.58,.8,1.12,.54,2.69-.58,3.49l-49.86,35.59c-6.71,4.79-12.58,5.38-16.12,1.61-3.53-3.76-1.85-8.64-.5-12.55,1.02-2.96,1.99-5.75,1.08-7.78-1.03-2.3-4.56-2.9-7.09-2.01-3.06,1.08-5.61,3.76-8.07,6.34l-.19,.2c-6.74,7.07-14.98,14.99-24.99,20.18-10.91,5.65-22.37,7.12-32.28,4.16-4.9-1.47-9.44-4.14-13.37-7.7-9.6,6.77-21.05,12.5-34.24,17.13-6.84,2.4-14.99,4.87-23.59,4.99-7.09,.09-13.69-1.53-19.02-4.63-3.92,6.98-8.01,13.86-12.25,20.65-.47,.76-1.29,1.18-2.12,1.18ZM63.05,79.36c-4.67,0-9.97,2.73-14.65,7.66-9.18,9.66-13.77,22.57-16.75,32.74-7,23.92-9.47,48.64-7.34,73.47,.83,9.7,2.8,21.7,10.64,28.98,14.23-25.99,26.21-53.23,35.72-81.29,4.47-13.19,9.07-28.51,6.98-43.54-1.02-7.38-4.7-15.91-11.96-17.7-.85-.21-1.74-.31-2.65-.31Zm68.16,51.09c-7.27,0-13.47,8.67-15.35,11.59-6.28,9.75-13.4,24.8-11.68,41.1,.9,8.53,4.49,16.45,9.74,22.39,3.97-3.05,7.55-6.3,10.76-9.74,13.36-14.36,20.19-33.01,18.28-49.87-.34-3.01-2.02-13-9.2-15.1-.86-.25-1.71-.37-2.54-.37Z"/>
    </g>
    <path d="M275.37,271.03H2.5C1.12,271.03,0,269.91,0,268.53s1.12-2.5,2.5-2.5H275.37c1.38,0,2.5,1.12,2.5,2.5s-1.12,2.5-2.5,2.5Z"/>
  </g>
  <g>
    <g>
      <path class="cls-1" d="M222.21,142.4L127.22,22.44c-3.62-4.58-2.84-11.29,1.73-14.91l3.47-2.75c4.58-3.62,11.29-2.84,14.91,1.73l94.99,119.96"/>
      <path d="M222.21,144.9c-.74,0-1.47-.32-1.96-.95L125.26,23.99c-2.17-2.74-3.14-6.17-2.73-9.65,.41-3.49,2.14-6.6,4.87-8.77l3.47-2.75c2.74-2.17,6.16-3.14,9.65-2.73,3.49,.41,6.6,2.14,8.77,4.87l94.99,119.96c.86,1.08,.67,2.65-.41,3.51-1.08,.86-2.66,.67-3.51-.41L145.36,8.06c-1.34-1.69-3.27-2.76-5.43-3.01-2.17-.25-4.28,.35-5.97,1.69l-3.47,2.75c-1.69,1.34-2.76,3.27-3.01,5.43s.35,4.28,1.69,5.97l94.99,119.96c.86,1.08,.67,2.65-.41,3.51-.46,.36-1.01,.54-1.55,.54Z"/>
    </g>
    <g>
      <polygon class="cls-1" points="253.29 161 242.32 126.48 222.21 142.4 253.29 161"/>
      <path d="M253.29,163.5c-.44,0-.89-.12-1.28-.35l-31.08-18.6c-.71-.42-1.16-1.16-1.21-1.98-.05-.82,.3-1.61,.94-2.12l20.11-15.92c.64-.51,1.5-.67,2.28-.43,.79,.24,1.4,.85,1.65,1.63l10.97,34.52c.31,.99-.02,2.07-.83,2.72-.45,.36-1,.54-1.55,.54Zm-26.69-21.38l22.31,13.35-7.88-24.78-14.43,11.43Z"/>
    </g>
  </g>
</svg>