<?xml version="1.0" encoding="UTF-8"?>
<svg id="_Слой_1" data-name="Слой 1" xmlns="http://www.w3.org/2000/svg" viewBox="0 0 333.98 245.15">
  <defs>
    <style>
      .cls-1 {
        fill: #fff;
      }

      .cls-2 {
        fill: #f7c930;
      }
    </style>
  </defs>
  <circle class="cls-1" cx="103.66" cy="141.49" r="72.5"/>
  <circle class="cls-1" cx="262.7" cy="73.12" r="42.5"/>
  <g>
    <path class="cls-2" d="M203.9,128.01c-7.77-2.06-15.62-3.41-23.41-4.09-.94-4.09-4.05-12.67-4.13-12.88h0s-.81-1.85-.81-1.85c-1.69-3.79-3.7-7.44-5.97-10.91,4.91-6.08,9.38-12.68,13.28-19.71-5.16-6.56-11.2-12.43-17.84-17.5-6.88,3.99-13.39,8.56-19.45,13.66-3.26-2.03-6.65-3.83-10.17-5.38v-.02c-.45-.19-1.42-.59-1.86-.79,0,0-9.11-3.23-13.82-4.23-.83-7.88-2.36-15.69-4.55-23.33-8.3-.94-16.72-.9-24.99,.25-2.06,7.77-3.41,15.62-4.09,23.41-4.04,.93-8.01,2.17-11.86,3.73,0,0-2.86,1.21-3.35,1.42,0,0-7.11,3.59-10.44,5.77-6.08-4.91-12.68-9.38-19.71-13.28-6.56,5.16-12.43,11.2-17.5,17.84,3.99,6.88,8.56,13.39,13.66,19.45-2.21,3.55-6.17,12.04-6.17,12.04,0,0-1,2.59-1.34,3.43,0,0-2.16,6.87-2.91,10.38-7.88,.83-15.69,2.36-23.33,4.55-.94,8.3-.9,16.72,.25,24.99,7.77,2.06,15.62,3.41,23.41,4.09,.95,4.13,2.22,8.19,3.83,12.11,0,0,1.01,2.39,1.11,2.63h.02c1.69,3.78,3.7,7.43,5.97,10.9-4.91,6.08-9.38,12.68-13.28,19.71,5.16,6.56,11.2,12.43,17.84,17.5,6.88-3.99,13.39-8.56,19.45-13.66,3.43,2.14,7.01,4.03,10.73,5.62,0,0,2.63,1.09,2.78,1.15h0c4,1.55,8.14,2.75,12.33,3.64,.83,7.88,2.36,15.69,4.55,23.33,8.3,.94,16.72,.9,24.99-.25,2.06-7.77,3.41-15.62,4.09-23.41,3.95-.91,7.84-2.11,11.6-3.63v.02c.35-.15,1.27-.54,1.27-.54l.85-.36s.79-.34,1.08-.46v-.02c3.76-1.68,7.38-3.68,10.83-5.93,6.08,4.91,12.68,9.38,19.71,13.28,6.56-5.16,12.43-11.2,17.5-17.84-3.99-6.88-8.56-13.39-13.66-19.45,2.16-3.47,4.08-7.1,5.68-10.87h.02c.12-.3,1.12-2.77,1.23-3.03h-.02c1.49-3.89,2.64-7.89,3.5-11.94,7.88-.83,15.69-2.36,23.33-4.55,.94-8.3,.9-16.72-.25-24.99Zm-40.9,35.77l-1,2.5c-3.08,7.32-7.53,13.97-13.05,19.6-5.46,5.57-11.99,10.1-19.12,13.33l-2.12,.92c-7.43,3.05-15.44,4.69-23.44,4.77-8.11,.08-16.21-1.4-23.81-4.42l-.96-.39c-7.58-3.09-14.45-7.65-20.24-13.33-5.74-5.63-10.39-12.39-13.64-19.78l-.62-1.46c-3.05-7.43-4.69-15.43-4.76-23.43-.08-7.96,1.35-15.91,4.26-23.38l.73-1.8c3.09-7.41,7.57-14.14,13.15-19.83,5.48-5.59,12.03-10.13,19.19-13.36l2.32-1c7.36-2.98,15.26-4.58,23.17-4.66,8.13-.08,16.25,1.4,23.85,4.43l1.01,.41c7.54,3.09,14.38,7.63,20.15,13.29,5.66,5.55,10.25,12.19,13.49,19.46l.73,1.69c3.07,7.46,4.72,15.49,4.8,23.53,.08,7.79-1.3,15.57-4.08,22.91Z"/>
    <path d="M103.78,245.15c-3.94,0-7.92-.23-11.91-.68-1-.11-1.84-.82-2.12-1.79-2.07-7.21-3.56-14.6-4.43-21.97-3.74-.87-7.33-1.97-10.72-3.28-.1-.03-.2-.06-.29-.1l-2.78-1.16c-3.23-1.38-6.43-3.02-9.55-4.87-5.74,4.71-11.93,9-18.42,12.76-.87,.51-1.97,.44-2.77-.18-6.95-5.31-13.1-11.35-18.29-17.94-.62-.79-.71-1.88-.22-2.76,3.63-6.54,7.8-12.81,12.39-18.65-1.92-3.07-3.61-6.25-5.06-9.46-.06-.1-.11-.2-.16-.31l-1.1-2.62c-1.41-3.44-2.6-7.04-3.54-10.76-7.4-.74-14.8-2.08-22.04-3.99-.97-.26-1.7-1.07-1.84-2.07-1.16-8.31-1.25-16.92-.26-25.62,.11-1,.82-1.84,1.8-2.12,7.22-2.07,14.61-3.56,21.99-4.43,.93-3.68,2.48-8.6,2.55-8.85,.02-.06,.04-.13,.07-.19,.33-.83,1.32-3.39,1.32-3.39,.02-.05,.04-.11,.07-.16,.14-.31,3.13-6.7,5.39-10.73-4.71-5.74-9.01-11.94-12.78-18.44-.51-.87-.44-1.97,.18-2.77,5.31-6.95,11.35-13.1,17.94-18.29,.79-.62,1.88-.71,2.76-.22,6.55,3.64,12.82,7.81,18.67,12.41,3.62-2.16,8.87-4.82,9.13-4.95,.05-.02,.09-.05,.14-.07,.49-.21,3.37-1.43,3.37-1.43,3.38-1.37,6.9-2.52,10.51-3.43,.74-7.4,2.08-14.8,3.99-22.04,.26-.97,1.07-1.7,2.07-1.84,8.31-1.16,16.93-1.25,25.62-.26,1,.11,1.84,.82,2.12,1.8,2.07,7.23,3.56,14.62,4.43,21.99,4.96,1.28,12.03,3.78,12.37,3.9,.06,.02,.11,.04,.17,.07,.43,.19,1.37,.58,1.81,.76,.12,.05,.23,.11,.34,.17,2.92,1.29,5.82,2.8,8.65,4.48,5.74-4.7,11.93-8.99,18.42-12.76,.87-.51,1.97-.44,2.77,.18,6.95,5.31,13.11,11.35,18.29,17.94,.62,.79,.71,1.88,.22,2.76-3.63,6.54-7.8,12.81-12.39,18.65,1.97,3.16,3.71,6.42,5.18,9.73l.74,1.7c.05,.09,.09,.18,.13,.28,.03,.07,2.5,6.87,3.78,11.45,7.41,.74,14.83,2.08,22.07,4,.97,.26,1.7,1.07,1.83,2.07,1.16,8.3,1.25,16.92,.26,25.62-.11,1-.82,1.84-1.8,2.12-7.21,2.07-14.59,3.56-21.97,4.43-.83,3.56-1.88,7-3.11,10.27-.03,.12-.07,.23-.11,.35-.11,.26-1.09,2.69-1.21,3-.05,.12-.1,.24-.17,.35-1.36,3.16-2.97,6.31-4.8,9.38,4.7,5.73,8.99,11.92,12.76,18.42,.51,.88,.44,1.97-.18,2.77-5.31,6.95-11.35,13.1-17.94,18.29-.79,.62-1.88,.71-2.76,.22-6.54-3.63-12.81-7.8-18.65-12.39-3.04,1.9-6.19,3.58-9.38,5.02-.1,.06-.21,.12-.33,.17-.28,.12-1.06,.45-1.06,.45l-.86,.37s-.91,.38-1.25,.53c-.12,.05-.24,.09-.37,.13-3.19,1.27-6.52,2.34-9.92,3.2-.74,7.4-2.08,14.8-3.99,22.04-.26,.97-1.07,1.7-2.07,1.84-4.49,.63-9.07,.94-13.71,.94Zm-9.68-5.47c7.14,.69,14.2,.62,21.04-.21,1.77-7.03,2.98-14.2,3.59-21.36,.09-1.08,.87-1.98,1.93-2.22,3.86-.89,7.64-2.07,11.23-3.51,.08-.03,.16-.06,.24-.08,.42-.18,1-.42,1-.42l.85-.36h0s.47-.2,.82-.35c.07-.04,.14-.08,.21-.11,3.58-1.6,7.11-3.53,10.49-5.74,.91-.59,2.1-.53,2.94,.15,5.59,4.52,11.6,8.62,17.89,12.21,5.34-4.36,10.29-9.4,14.73-15.02-3.73-6.24-7.95-12.17-12.56-17.64-.7-.83-.78-2.01-.21-2.93,2.14-3.44,3.99-6.98,5.51-10.53,.03-.08,.07-.15,.11-.23,.25-.61,.77-1.91,1.01-2.5,.02-.08,.05-.15,.07-.23,1.39-3.64,2.54-7.53,3.39-11.56,.22-1.06,1.11-1.85,2.18-1.97,7.13-.75,14.28-2.1,21.28-4.01,.69-7.13,.62-14.2-.21-21.04-7.02-1.77-14.2-2.98-21.36-3.59-1.08-.09-1.98-.87-2.22-1.93-.8-3.5-3.43-10.89-3.98-12.39,0-.01-.01-.03-.02-.04l-.81-1.85c-1.6-3.59-3.54-7.14-5.77-10.54-.59-.91-.54-2.1,.15-2.94,4.52-5.59,8.62-11.6,12.21-17.89-4.36-5.34-9.4-10.29-15.03-14.73-6.24,3.72-12.17,7.94-17.64,12.56-.83,.7-2.01,.78-2.93,.21-3.2-2-6.52-3.75-9.85-5.21-.08-.04-.16-.07-.23-.12-.48-.2-1.15-.48-1.54-.65-.91-.32-9.16-3.2-13.42-4.11-1.06-.23-1.85-1.11-1.97-2.18-.75-7.12-2.1-14.27-4.01-21.28-7.13-.69-14.2-.62-21.04,.2-1.77,7.03-2.98,14.2-3.59,21.36-.09,1.08-.87,1.98-1.93,2.22-3.96,.91-7.82,2.12-11.47,3.61h0s-2.59,1.09-3.23,1.37c-.73,.37-7.12,3.63-10.13,5.6-.91,.59-2.1,.53-2.94-.15-5.59-4.51-11.6-8.62-17.89-12.21-5.34,4.36-10.29,9.4-14.73,15.03,3.72,6.24,7.94,12.17,12.56,17.64,.7,.83,.78,2.01,.21,2.93-2,3.21-5.59,10.86-5.99,11.7-.17,.43-.95,2.46-1.28,3.29-.26,.82-2.15,6.92-2.82,10.06-.22,1.06-1.11,1.85-2.18,1.97-7.12,.75-14.28,2.1-21.28,4.01-.69,7.13-.62,14.2,.21,21.04,7.03,1.77,14.21,2.98,21.36,3.59,1.08,.09,1.98,.87,2.22,1.93,.93,4.07,2.18,8.02,3.71,11.72l.98,2.34c.04,.07,.08,.14,.11,.21,1.61,3.6,3.55,7.15,5.78,10.56,.59,.91,.54,2.1-.15,2.94-4.51,5.58-8.62,11.6-12.21,17.89,4.36,5.34,9.4,10.29,15.03,14.73,6.23-3.72,12.16-7.94,17.64-12.56,.83-.7,2.02-.78,2.93-.21,3.39,2.11,6.89,3.94,10.4,5.45l2.52,1.05c.06,.02,.12,.04,.19,.06,3.73,1.46,7.75,2.64,11.94,3.53,1.06,.22,1.86,1.11,1.97,2.18,.75,7.13,2.1,14.28,4.01,21.28Zm9.54-32.27c-8.32,0-16.42-1.54-24.1-4.59l-.97-.39c-7.87-3.21-14.95-7.87-21.06-13.86-5.92-5.8-10.82-12.91-14.18-20.56l-.63-1.49c-3.17-7.72-4.88-16.14-4.96-24.38-.08-8.37,1.41-16.55,4.43-24.32l.74-1.83c3.22-7.73,7.82-14.66,13.68-20.64,5.71-5.82,12.42-10.49,19.95-13.89l2.36-1.01c7.67-3.11,16-4.78,24.13-4.86,8.6-.08,16.92,1.47,24.8,4.61l1.03,.42c7.83,3.21,14.88,7.85,20.96,13.82,5.82,5.7,10.67,12.7,14.02,20.23l.74,1.71c3.2,7.76,4.93,16.22,5.01,24.5,.08,8.17-1.35,16.19-4.24,23.82,0,.01,0,.03-.01,.04l-1,2.5c-3.22,7.65-7.79,14.51-13.59,20.43-5.69,5.8-12.37,10.46-19.87,13.86l-2.15,.94c-7.75,3.18-16.18,4.89-24.42,4.98-.22,0-.44,0-.66,0Zm.04-126.85c-.2,0-.4,0-.61,0-7.51,.07-15.2,1.62-22.25,4.48l-2.27,.98c-6.82,3.08-13.19,7.52-18.39,12.82-5.42,5.53-9.67,11.93-12.62,19.04l-.71,1.77c-2.78,7.14-4.15,14.7-4.08,22.43,.08,7.61,1.66,15.39,4.58,22.51l.61,1.43c3.09,7.04,7.62,13.61,13.09,18.97,5.65,5.54,12.19,9.84,19.44,12.8l.95,.38c7.26,2.89,14.98,4.31,22.85,4.23,7.61-.07,15.4-1.66,22.52-4.58l2.07-.9c6.9-3.13,13.08-7.43,18.33-12.79,5.36-5.46,9.57-11.8,12.53-18.82l.97-2.44c2.67-7.04,3.98-14.43,3.91-21.97-.07-7.65-1.67-15.46-4.61-22.6l-.71-1.65c-3.09-6.93-7.57-13.4-12.94-18.66-5.62-5.51-12.13-9.8-19.35-12.76l-1-.41c-7.08-2.82-14.58-4.25-22.28-4.25Zm59.32,83.21h0Z"/>
  </g>
  <g>
    <circle class="cls-2" cx="103.66" cy="141.49" r="31.83"/>
    <path d="M103.73,175.83c-2.64,0-5.29-.31-7.92-.92-8.93-2.1-16.5-7.55-21.33-15.34-4.83-7.8-6.33-17-4.23-25.93,4.33-18.43,22.84-29.89,41.27-25.56,8.93,2.1,16.5,7.55,21.33,15.34,4.83,7.8,6.33,17,4.23,25.93-2.1,8.93-7.55,16.5-15.34,21.33-5.5,3.41-11.7,5.16-18.01,5.16Zm-.07-63.67c-13.3,0-25.38,9.13-28.55,22.62-1.79,7.63-.51,15.49,3.62,22.15,4.13,6.66,10.6,11.31,18.22,13.11,7.63,1.79,15.49,.51,22.15-3.62,6.66-4.12,11.31-10.6,13.11-18.22h0c1.79-7.63,.51-15.49-3.62-22.15s-10.6-11.31-18.22-13.11c-2.25-.53-4.5-.78-6.71-.78Z"/>
  </g>
  <g>
    <circle class="cls-2" cx="262.7" cy="73.12" r="13.38"/>
    <path d="M262.7,89c-1.2,0-2.42-.14-3.63-.42-4.13-.97-7.64-3.49-9.87-7.1-2.23-3.61-2.93-7.87-1.96-12,.97-4.13,3.49-7.63,7.1-9.87,3.61-2.23,7.87-2.93,12-1.96,4.13,.97,7.63,3.49,9.87,7.1,2.23,3.61,2.93,7.87,1.96,12h0c-1.72,7.31-8.26,12.25-15.46,12.25Zm-.02-26.77c-2,0-3.97,.56-5.71,1.64-2.47,1.53-4.2,3.93-4.86,6.76-.67,2.83-.19,5.75,1.34,8.22,1.53,2.47,3.93,4.2,6.76,4.86,5.83,1.37,11.71-2.26,13.08-8.11h0c.67-2.83,.19-5.75-1.34-8.22s-3.93-4.2-6.76-4.86c-.83-.2-1.67-.29-2.51-.29Z"/>
  </g>
  <g>
    <path class="cls-2" d="M309.52,91.14c1.46-3.51,2.26-7.35,2.9-11.1h-.03s.1-.79,.1-.79h.03c.35-3.77,.57-7.72,.07-11.47,6.63-2.77,13-6.35,18.9-10.64-1.77-7.58-4.76-14.85-8.85-21.45-7.27,1.24-14.14,3.09-20.92,5.89-2.36-2.93-5.19-5.76-8.18-8.04h0s-.63-.47-.63-.47l.02-.03c-.45-.4-.94-.73-1.44-1.06h0c-2.54-1.73-5.62-3.56-8.43-4.76,.86-6.95,1.01-14.43,.2-21.66-7.38-2.27-15.24-3.3-22.96-3.01-2.65,6.78-4.43,14.04-5.4,20.98-3.65,.58-7.63,1.67-11.04,3.08l.02,.05-.73,.29v-.02s-.75,.32-.75,.32h0c-3.22,1.35-6.42,3.28-9.24,5.33-5.82-4.45-11.98-8.01-18.69-11.09-5.65,5.33-10.42,11.58-14.08,18.44,4.59,5.67,9.82,10.77,15.51,15.16-1.45,3.49-2.26,7.37-2.9,11.1h.05s-.11,.79-.11,.79h-.04c-.35,3.76-.57,7.72-.07,11.47-6.63,2.77-13,6.35-18.9,10.64,1.77,7.58,4.76,14.85,8.85,21.45,7.27-1.24,14.14-3.09,20.92-5.89,2.34,2.91,5.21,5.77,8.18,8.04h0s.62,.49,.62,.49h0c.22,.18,.62,.48,.84,.66h0c2.73,1.9,5.98,3.85,9.03,5.17-.86,6.95-1.01,14.43-.2,21.66,7.38,2.27,15.24,3.3,22.96,3.01,2.65-6.78,4.43-14.04,5.4-20.98,3.38-.51,7.11-1.57,10.31-2.78v.02c.06-.02,.69-.3,.73-.32h0c3.73-1.53,7.45-3.57,10.7-5.97,5.82,4.45,11.98,8.01,18.69,11.09,5.65-5.33,10.42-11.58,14.08-18.44-4.59-5.67-9.82-10.77-15.51-15.16Zm-10.84-15.94c-.02,.27-.04,.54-.06,.81h0s-.37,3.04-.37,3.04h0c-3.82,26.28-36.43,39.21-57.26,22.88h0s-.44-.35-.44-.35h0c-9.78-7.47-15.14-20.17-13.7-32.38h0s.22-1.64,.22-1.64h0c8.42-44.84,72.91-37.91,71.6,7.65Z"/>
    <path d="M262.6,146.23c-7.13,0-14.4-1.08-21.18-3.17-.95-.29-1.64-1.12-1.75-2.11-.72-6.5-.72-13.52,0-20.43-2.39-1.17-5-2.72-7.54-4.48-.14-.08-.28-.17-.41-.27-.13-.11-.35-.28-.54-.42l-.24-.18c-.07-.06-.14-.12-.21-.18l-.29-.23s-.07-.05-.1-.07c-2.56-1.95-5.15-4.4-7.42-7.03-6.1,2.38-12.58,4.13-19.75,5.35-1,.17-2.01-.28-2.55-1.15-4.24-6.85-7.32-14.32-9.16-22.2-.23-.98,.15-2,.96-2.59,5.52-4.02,11.47-7.45,17.69-10.19-.27-3.53-.03-7.06,.25-10.13,.02-.17,.05-.33,.1-.49,0-.16,0-.32,.03-.48,.52-3.04,1.2-6.52,2.37-9.85-5.31-4.26-10.17-9.1-14.46-14.41-.63-.78-.74-1.86-.26-2.75,3.81-7.14,8.71-13.56,14.58-19.09,.74-.7,1.83-.88,2.76-.45,6.61,3.03,12.41,6.4,17.7,10.27,2.77-1.88,5.58-3.43,8.22-4.54h0c.09-.04,.21-.09,.33-.15l.37-.16c.12-.05,.25-.1,.38-.13,.12-.08,.26-.15,.4-.21,3-1.24,6.41-2.25,9.79-2.91,1.08-6.86,2.89-13.65,5.27-19.74,.36-.93,1.24-1.55,2.24-1.59,7.95-.3,16.18,.78,23.79,3.12,.95,.29,1.64,1.12,1.75,2.11,.73,6.5,.72,13.52,0,20.43,2.96,1.45,5.67,3.2,7.15,4.21,.52,.34,1.12,.74,1.69,1.25,.06,.05,.11,.11,.17,.16l.09,.07c.07,.04,.15,.09,.22,.15,2.6,1.98,5.14,4.39,7.42,7.03,6.1-2.38,12.58-4.13,19.75-5.35,1-.17,2.01,.28,2.55,1.15,4.24,6.85,7.32,14.32,9.16,22.2,.23,.98-.15,2-.96,2.59-5.52,4.02-11.47,7.45-17.69,10.19,.27,3.52,.03,7.05-.25,10.13-.01,.16-.04,.31-.09,.46v.05c0,.15-.01,.3-.04,.46-.52,3.04-1.2,6.52-2.37,9.85,5.31,4.26,10.17,9.1,14.46,14.41,.63,.78,.74,1.86,.26,2.75-3.81,7.14-8.71,13.56-14.58,19.09-.74,.7-1.83,.88-2.76,.45-6.6-3.03-12.41-6.39-17.69-10.27-2.96,2.01-6.29,3.79-9.71,5.19l-.69,.3c-.14,.06-.28,.11-.43,.14-2.91,1.08-5.92,1.93-8.67,2.47-1.08,6.85-2.9,13.64-5.27,19.74-.36,.93-1.24,1.55-2.24,1.59-.87,.03-1.74,.05-2.61,.05Zm-18.12-7.48c6.1,1.71,12.57,2.57,18.9,2.48,2.15-5.87,3.76-12.36,4.66-18.87,.15-1.1,1.01-1.96,2.11-2.13,2.97-.44,6.45-1.38,9.8-2.65,.06-.02,.13-.05,.19-.06,.16-.07,.35-.15,.47-.2h0c3.66-1.5,7.17-3.46,10.17-5.67,.9-.66,2.12-.65,3,.03,4.97,3.8,10.44,7.11,16.67,10.08,4.54-4.49,8.43-9.58,11.58-15.17-4.19-4.98-8.9-9.51-14.03-13.46-.89-.69-1.22-1.89-.78-2.94,1.36-3.27,2.12-6.97,2.68-10.2,0-.09,0-.18,.02-.27l.1-.78c.01-.1,.03-.19,.05-.28,.29-3.27,.51-7.03,.04-10.54-.15-1.12,.47-2.2,1.51-2.64,5.98-2.5,11.7-5.65,17.03-9.38-1.6-6.21-4.04-12.13-7.27-17.64-6.79,1.26-12.93,3.04-18.71,5.44-1.03,.42-2.21,.12-2.9-.74-2.27-2.82-4.88-5.39-7.55-7.46-.07-.04-.14-.09-.21-.14l-.63-.48c-.14-.11-.27-.23-.38-.36-.26-.2-.57-.41-.9-.62-2.83-1.93-5.68-3.54-8.05-4.56-1.02-.44-1.63-1.5-1.5-2.6,.8-6.52,.93-13.2,.36-19.43-6.1-1.71-12.56-2.57-18.9-2.48-2.15,5.87-3.76,12.36-4.66,18.87-.15,1.09-1,1.95-2.08,2.12-3.36,.53-6.99,1.52-10.04,2.74-.14,.09-.29,.17-.44,.24l-.73,.29c-.06,.02-.12,.05-.18,.07-.24,.11-.43,.19-.6,.25-2.76,1.17-5.76,2.9-8.67,5.02-.89,.65-2.11,.63-2.99-.04-4.97-3.8-10.44-7.11-16.67-10.08-4.54,4.49-8.43,9.58-11.58,15.17,4.18,4.98,8.9,9.51,14.03,13.46,.9,.69,1.22,1.9,.78,2.94-1.34,3.23-2.1,6.88-2.66,10.08,0,.13,0,.27-.02,.4l-.11,.78c-.02,.12-.04,.23-.07,.35-.29,3.24-.5,6.97-.04,10.45,.15,1.12-.47,2.2-1.51,2.64-5.98,2.5-11.7,5.65-17.03,9.38,1.6,6.21,4.04,12.13,7.27,17.64,6.79-1.26,12.93-3.04,18.71-5.43,1.02-.43,2.21-.12,2.9,.74,2.25,2.8,4.95,5.46,7.61,7.51,.06,.04,.12,.08,.18,.13l.62,.49c.05,.04,.1,.08,.15,.13l.03,.02c.14,.11,.29,.22,.43,.33,.04,.02,.08,.05,.11,.07,2.95,2.07,6,3.82,8.58,4.93,1.02,.44,1.63,1.5,1.49,2.6-.8,6.52-.93,13.2-.36,19.43Zm17.66-27.07c-8.13,0-16-2.61-22.54-7.68-.06-.04-.12-.09-.18-.13l-.44-.36s-.07-.06-.1-.08c-10.34-7.99-16.03-21.52-14.5-34.53,0-.07,.02-.14,.04-.21l.17-1.28c0-.1,.02-.21,.04-.31,4.63-24.67,25.12-33.93,42.18-32.09,17.06,1.83,35.09,15.22,34.38,40.28,0,.05,0,.1,0,.16l-.06,.78c0,.1-.02,.2-.04,.3l-.32,2.64c0,.09-.01,.18-.02,.27-1.92,13.2-10.79,24.17-23.73,29.35-4.89,1.96-9.92,2.92-14.86,2.92Zm-19.7-11.8s.07,.05,.1,.07c9.1,7.14,21.29,8.69,32.6,4.16,11.2-4.49,18.9-13.91,20.62-25.23,0-.05,0-.09,.01-.14l.37-3.05s0-.05,.01-.08v-.12c.02-.15,.03-.3,.04-.44,.59-21.96-14.59-33.44-29.92-35.09-15.32-1.65-32.57,6.34-36.7,27.87,0,.02,0,.04,0,.05l-.22,1.64s-.01,.08-.02,.12c-1.27,11.31,3.73,23.04,12.75,29.93,.07,.06,.15,.12,.21,.18l.15,.12Z"/>
  </g>
</svg>