<?xml version="1.0" encoding="UTF-8"?>
<svg id="_Слой_1" data-name="Слой 1" xmlns="http://www.w3.org/2000/svg" viewBox="0 0 245 245">
  <defs>
    <style>
      .cls-1 {
        fill: #fff;
      }

      .cls-2 {
        fill: #f7c930;
      }
    </style>
  </defs>
  <g>
    <circle class="cls-1" cx="122.5" cy="122.5" r="120"/>
    <path d="M122.5,245C54.95,245,0,190.05,0,122.5S54.95,0,122.5,0s122.5,54.95,122.5,122.5-54.95,122.5-122.5,122.5Zm0-240C57.71,5,5,57.71,5,122.5s52.71,117.5,117.5,117.5,117.5-52.71,117.5-117.5S187.29,5,122.5,5Z"/>
  </g>
  <g>
    <circle class="cls-2" cx="122.5" cy="122.5" r="95.55"/>
    <path d="M122.5,220.55c-54.06,0-98.05-43.98-98.05-98.05S68.44,24.45,122.5,24.45s98.05,43.98,98.05,98.05-43.98,98.05-98.05,98.05Zm0-191.09c-51.31,0-93.05,41.74-93.05,93.05s41.74,93.05,93.05,93.05,93.05-41.74,93.05-93.05S173.81,29.45,122.5,29.45Z"/>
  </g>
  <g>
    <path class="cls-1" d="M116.51,176.05c-2.49,0-4.88-.99-6.65-2.76l-38.97-38.97c-3.67-3.68-3.67-9.63,0-13.31,3.67-3.67,9.63-3.67,13.31,0l31.38,31.38,51.92-67.65c3.16-4.12,9.07-4.9,13.19-1.74,4.12,3.16,4.9,9.07,1.74,13.19l-58.45,76.16c-1.65,2.15-4.15,3.48-6.85,3.66-.21,.01-.41,.02-.62,.02Z"/>
    <path d="M116.51,178.55c-3.13,0-6.2-1.27-8.42-3.49l-38.97-38.97c-4.64-4.64-4.64-12.2,0-16.84,4.64-4.64,12.2-4.64,16.84,0l29.36,29.36,50.18-65.39c1.94-2.52,4.74-4.14,7.9-4.56,3.15-.42,6.28,.42,8.8,2.36,5.21,4,6.19,11.49,2.2,16.7l-58.45,76.16c-2.09,2.72-5.25,4.41-8.67,4.63-.26,.02-.52,.02-.78,.02Zm-38.96-57.78c-1.77,0-3.54,.67-4.89,2.02-2.69,2.69-2.69,7.08,0,9.77l38.97,38.97c1.39,1.39,3.36,2.13,5.34,2.01,1.98-.13,3.81-1.11,5.03-2.69l58.45-76.16c2.32-3.02,1.75-7.37-1.27-9.69-1.46-1.12-3.27-1.61-5.11-1.37-1.83,.24-3.46,1.18-4.58,2.64l-51.92,67.65c-.44,.57-1.1,.93-1.82,.97-.72,.04-1.42-.22-1.93-.73l-31.38-31.38c-1.35-1.35-3.12-2.02-4.89-2.02Z"/>
  </g>
</svg>