<?xml version="1.0" encoding="UTF-8"?>
<svg id="_Слой_1" data-name="Слой 1" xmlns="http://www.w3.org/2000/svg" viewBox="0 0 231.95 271.97">
  <defs>
    <style>
      .cls-1 {
        fill: #fff;
      }

      .cls-2 {
        fill: #f7c930;
      }
    </style>
  </defs>
  <g>
    <g>
      <path class="cls-1" d="M204.15,57.53h2.16c4.42,0,8,3.58,8,8v15.83h-18.16v-15.83c0-4.42,3.58-8,8-8Z" transform="translate(109.22 -124.78) rotate(45)"/>
      <path d="M203.22,86.79h0c-.66,0-1.3-.26-1.77-.73l-12.84-12.84c-.98-.98-.98-2.56,0-3.54l11.19-11.19c4.09-4.09,10.76-4.09,14.85,0l1.52,1.52c4.09,4.09,4.09,10.75,0,14.85l-11.19,11.19c-.47,.47-1.1,.73-1.77,.73Zm-9.3-15.34l9.3,9.3,9.43-9.43c2.14-2.14,2.14-5.63,0-7.78l-1.52-1.52c-2.15-2.14-5.64-2.14-7.78,0l-9.42,9.42Z"/>
    </g>
    <g>
      <path class="cls-1" d="M17.64,57.53h18.16v15.83c0,4.42-3.58,8-8,8h-2.16c-4.42,0-8-3.58-8-8v-15.83h0Z" transform="translate(94.72 99.66) rotate(135)"/>
      <path d="M28.72,86.79c-.66,0-1.3-.26-1.77-.73l-11.19-11.19c-4.09-4.09-4.09-10.75,0-14.85l1.52-1.52c4.09-4.09,10.76-4.09,14.85,0l11.19,11.19c.98,.98,.98,2.56,0,3.54l-12.84,12.84c-.47,.47-1.1,.73-1.77,.73Zm-4.01-26.37c-1.41,0-2.82,.54-3.89,1.61l-1.52,1.52c-2.14,2.14-2.14,5.63,0,7.78l9.43,9.43,9.3-9.3-9.42-9.43c-1.07-1.07-2.48-1.61-3.89-1.61Z"/>
    </g>
  </g>
  <g>
    <path class="cls-2" d="M106.9,43.92V21.52h-14.63c-2.68,0-4.85-2.17-4.85-4.85V7.35c0-2.68,2.17-4.85,4.85-4.85h47.4c2.68,0,4.85,2.17,4.85,4.85v9.33c0,2.68-2.17,4.85-4.85,4.85h-14.62v22.4"/>
    <path d="M125.06,46.42c-1.38,0-2.5-1.12-2.5-2.5V21.52c0-1.38,1.12-2.5,2.5-2.5h14.62c1.29,0,2.34-1.05,2.34-2.35V7.35c0-1.29-1.05-2.35-2.34-2.35h-47.4c-1.29,0-2.34,1.05-2.34,2.35v9.33c0,1.29,1.05,2.35,2.34,2.35h14.63c1.38,0,2.5,1.12,2.5,2.5v22.4c0,1.38-1.12,2.5-2.5,2.5s-2.5-1.12-2.5-2.5V24.02h-12.13c-4.05,0-7.34-3.29-7.34-7.35V7.35C84.93,3.3,88.22,0,92.27,0h47.4c4.05,0,7.34,3.29,7.34,7.35v9.33c0,4.05-3.29,7.35-7.34,7.35h-12.12v19.9c0,1.38-1.12,2.5-2.5,2.5Z"/>
  </g>
  <g>
    <circle class="cls-2" cx="115.97" cy="156" r="113.47"/>
    <path d="M115.97,271.97C52.03,271.97,0,219.95,0,156S52.03,40.03,115.97,40.03s115.97,52.03,115.97,115.97-52.03,115.97-115.97,115.97Zm0-226.95C54.78,45.03,5,94.81,5,156s49.78,110.97,110.97,110.97,110.97-49.78,110.97-110.97S177.17,45.03,115.97,45.03Z"/>
  </g>
  <g>
    <circle class="cls-1" cx="115.97" cy="156" r="82.5"/>
    <path d="M115.97,241c-46.87,0-85-38.13-85-85s38.13-85,85-85,85,38.13,85,85-38.13,85-85,85Zm0-165c-44.11,0-80,35.89-80,80s35.89,80,80,80,80-35.89,80-80-35.89-80-80-80Z"/>
  </g>
  <path d="M135.83,180.4l-21.87-21.86c-.47-.47-.73-1.1-.73-1.77v-46.26c0-1.38,1.12-2.5,2.5-2.5s2.5,1.12,2.5,2.5v45.23l21.13,21.13-3.54,3.54Z"/>
  <path d="M115.97,88.38c-1.38,0-2.5-1.12-2.5-2.5v-12.38c0-1.38,1.12-2.5,2.5-2.5s2.5,1.12,2.5,2.5v12.38c0,1.38-1.12,2.5-2.5,2.5Z"/>
  <path d="M115.97,241c-1.38,0-2.5-1.12-2.5-2.5v-12.38c0-1.38,1.12-2.5,2.5-2.5s2.5,1.12,2.5,2.5v12.38c0,1.38-1.12,2.5-2.5,2.5Z"/>
  <g>
    <path d="M45.85,158.5h-12.38c-1.38,0-2.5-1.12-2.5-2.5s1.12-2.5,2.5-2.5h12.38c1.38,0,2.5,1.12,2.5,2.5s-1.12,2.5-2.5,2.5Z"/>
    <path d="M198.47,158.5h-12.38c-1.38,0-2.5-1.12-2.5-2.5s1.12-2.5,2.5-2.5h12.38c1.38,0,2.5,1.12,2.5,2.5s-1.12,2.5-2.5,2.5Z"/>
  </g>
  <path d="M57.64,216.84c-.64,0-1.28-.24-1.77-.73-.98-.98-.98-2.56,0-3.54l8.75-8.75c.98-.98,2.56-.98,3.54,0,.98,.98,.98,2.56,0,3.54l-8.75,8.75c-.49,.49-1.13,.73-1.77,.73Z"/>
  <path d="M165.56,108.91c-.64,0-1.28-.24-1.77-.73-.98-.98-.98-2.56,0-3.54l8.75-8.75c.98-.98,2.56-.98,3.54,0,.98,.98,.98,2.56,0,3.54l-8.75,8.75c-.49,.49-1.13,.73-1.77,.73Z"/>
  <path d="M174.31,216.84c-.64,0-1.28-.24-1.77-.73l-8.75-8.75c-.98-.98-.98-2.56,0-3.54,.98-.98,2.56-.98,3.54,0l8.75,8.75c.98,.98,.98,2.56,0,3.54-.49,.49-1.13,.73-1.77,.73Z"/>
  <path d="M66.39,108.91c-.64,0-1.28-.24-1.77-.73l-8.75-8.75c-.98-.98-.98-2.56,0-3.54,.98-.98,2.56-.98,3.54,0l8.75,8.75c.98,.98,.98,2.56,0,3.54-.49,.49-1.13,.73-1.77,.73Z"/>
</svg>