<?xml version="1.0" encoding="UTF-8" standalone="no"?>
<!DOCTYPE svg PUBLIC "-//W3C//DTD SVG 1.1//EN" "http://www.w3.org/Graphics/SVG/1.1/DTD/svg11.dtd">
<svg width="100%" height="100%" viewBox="0 0 207 272" version="1.1" xmlns="http://www.w3.org/2000/svg" xmlns:xlink="http://www.w3.org/1999/xlink" xml:space="preserve" xmlns:serif="http://www.serif.com/" style="fill-rule:evenodd;clip-rule:evenodd;stroke-linejoin:round;stroke-miterlimit:2;">
    <g transform="matrix(1.97702,0.000579846,-0.000579846,1.97702,-2309.21,-2036.44)">
        <path d="M1200.57,1112.66C1199.5,1111.14 1198.18,1108.91 1198.05,1108.68C1195.96,1105.01 1192.97,1101.68 1190.09,1098.7C1188.33,1096.88 1186.19,1094.91 1183.84,1093.75C1182.13,1092.9 1180.3,1092.48 1178.42,1092.76C1176.43,1093.05 1174.36,1094.12 1172.3,1096.43C1171.45,1097.38 1170.31,1099.92 1170.35,1101.23C1170.41,1102.76 1171.38,1104.69 1172.73,1106.66C1174.46,1109.21 1176.78,1111.87 1177.62,1113.79C1180.04,1119.32 1181.33,1125.44 1184.12,1130.78C1189.6,1141.25 1197.85,1148.55 1205.57,1156.97C1207.68,1159.28 1210.47,1164.21 1210.47,1164.21C1210.69,1164.6 1211.1,1164.84 1211.55,1164.84L1262.58,1164.84C1263.18,1164.84 1263.69,1164.41 1263.8,1163.83C1266.01,1151.97 1267.82,1140.34 1268.51,1136.15C1269.88,1127.95 1270.97,1120.75 1270.86,1114.6C1270.75,1108.19 1269.32,1102.9 1265.68,1098.74C1262.59,1095.21 1257.87,1092.47 1250.86,1090.64C1249.92,1090.39 1234.23,1086.95 1227.87,1085.39C1227.09,1085.19 1226.32,1084.99 1225.88,1084.86C1225.86,1084.77 1225.83,1084.66 1225.81,1084.54C1225.63,1083.8 1225.44,1082.74 1225.25,1081.42C1223.88,1072.37 1222.03,1051.93 1221.15,1046.52C1220.57,1042.94 1220.03,1038.17 1218.09,1035.39C1216.01,1032.42 1212.49,1031.58 1210.93,1031.72C1209.02,1031.89 1204.69,1032.9 1203.18,1036.5C1201.08,1041.49 1202.13,1049.82 1202.09,1053.17C1202.03,1058.56 1202.38,1063.39 1202.73,1065.85C1205.11,1082.37 1204.41,1089.29 1201.65,1105.39C1201.39,1106.87 1201.3,1109.11 1200.93,1111.12C1200.83,1111.66 1200.71,1112.19 1200.57,1112.66Z" style="fill:url(#_Linear1);stroke:rgb(240,142,0);stroke-width:4.01px;"/>
    </g>
    <defs>
        <linearGradient id="_Linear1" x1="0" y1="0" x2="1" y2="0" gradientUnits="userSpaceOnUse" gradientTransform="matrix(26.5024,131.088,-131.088,26.5024,1205.57,1033.76)"><stop offset="0" style="stop-color:rgb(255,232,0);stop-opacity:1"/><stop offset="1" style="stop-color:rgb(242,175,13);stop-opacity:1"/></linearGradient>
    </defs>
</svg>
