<?xml version="1.0" encoding="UTF-8"?>
<svg id="_Слой_1" data-name="Слой 1" xmlns="http://www.w3.org/2000/svg" viewBox="0 0 1650.78 420.5">
  <defs>
    <style>
      .cls-1 {
        fill: #fff;
      }

      .cls-2 {
        fill: #f9cb30;
      }

      .cls-3 {
        fill: #f2f2f2;
      }
    </style>
  </defs>
  <g>
    <path class="cls-2" d="M1220.08,192.2l-60.29-25.44c-.84-.35-1.68,.49-1.33,1.33l7.33,17.25s-.01,.07-.05,.07h-105.14c-5.35,0-10.05,4.04-10.37,9.38-.35,5.8,4.25,10.62,9.98,10.62h105.53s.06,.04,.05,.07l-7.33,17.25c-.36,.84,.49,1.68,1.33,1.33l60.29-25.44c2.85-1.2,2.85-5.24,0-6.44Z"/>
    <path d="M1159.38,226.65c-.91,0-1.81-.36-2.48-1.03-1.02-1.02-1.31-2.53-.75-3.85l5.88-13.85h-101.83c-3.43,0-6.75-1.43-9.1-3.93-2.39-2.53-3.58-5.85-3.38-9.34,.4-6.58,6.05-11.73,12.87-11.73h101.44l-5.88-13.85c-.56-1.32-.27-2.84,.75-3.85,1.01-1.02,2.53-1.32,3.85-.76l60.29,25.44c2.26,.95,3.66,3.07,3.66,5.52s-1.4,4.57-3.66,5.52l-60.29,25.43c-.44,.19-.91,.28-1.37,.28Zm-98.79-38.74c-4.18,0-7.64,3.09-7.88,7.03-.13,2.1,.59,4.09,2.02,5.61,1.43,1.52,3.37,2.36,5.46,2.36h106.87l1.53,2.25-.51,1.29-5.9,13.89,56.91-24.01c.53-.22,.61-.67,.61-.92s-.08-.69-.61-.92l-56.91-24.01,6.42,15.11-1.5,2.29-1.38,.02h-105.14Z"/>
  </g>
  <g>
    <path class="cls-2" d="M618.08,192.2l-60.29-25.44c-.84-.35-1.68,.49-1.33,1.33l7.33,17.25s-.01,.07-.05,.07h-105.14c-5.35,0-10.05,4.04-10.37,9.38-.35,5.8,4.25,10.62,9.98,10.62h105.53s.06,.04,.05,.07l-7.33,17.25c-.36,.84,.49,1.68,1.33,1.33l60.29-25.44c2.85-1.2,2.85-5.24,0-6.44Z"/>
    <path d="M557.38,226.65c-.91,0-1.81-.36-2.48-1.03-1.02-1.02-1.31-2.53-.75-3.85l5.88-13.85h-101.83c-3.43,0-6.75-1.43-9.1-3.93-2.39-2.54-3.58-5.85-3.37-9.34,.4-6.58,6.05-11.73,12.87-11.73h101.44l-5.88-13.85c-.56-1.32-.27-2.84,.75-3.85,1.01-1.02,2.53-1.32,3.85-.76l60.29,25.44c2.26,.95,3.66,3.07,3.66,5.52s-1.4,4.57-3.66,5.52l-60.29,25.43c-.44,.19-.91,.28-1.37,.28Zm-98.79-38.74c-4.18,0-7.64,3.09-7.88,7.03-.13,2.1,.59,4.09,2.02,5.61,1.43,1.52,3.37,2.36,5.46,2.36h106.88l1.53,2.27-.53,1.29-5.89,13.86,56.91-24.01c.53-.22,.61-.67,.61-.92s-.08-.69-.61-.92l-56.91-24.01,6.42,15.11-1.48,2.29-1.39,.02h-105.14Z"/>
  </g>
  <g>
    <g>
      <g>
        <rect class="cls-3" x="1284.56" y="15.73" width="257.01" height="360"/>
        <path d="M1541.57,378.23h-257c-1.38,0-2.5-1.12-2.5-2.5V15.73c0-1.38,1.12-2.5,2.5-2.5h257c1.38,0,2.5,1.12,2.5,2.5V375.73c0,1.38-1.12,2.5-2.5,2.5Zm-254.5-5h252V18.23h-252V373.23Z"/>
      </g>
      <g>
        <rect class="cls-1" x="1302.42" y="48.67" width="221.29" height="291.37"/>
        <path d="M1523.71,342.54h-221.29c-1.38,0-2.5-1.12-2.5-2.5V48.67c0-1.38,1.12-2.5,2.5-2.5h221.29c1.38,0,2.5,1.12,2.5,2.5V340.04c0,1.38-1.12,2.5-2.5,2.5Zm-218.79-5h216.29V51.17h-216.29V337.54Z"/>
      </g>
      <g>
        <rect class="cls-3" x="1401.03" y="30.63" width="24.07" height="5.49" rx="2.45" ry="2.45"/>
        <path d="M1422.65,38.62h-19.16c-2.73,0-4.95-2.22-4.95-4.95v-.58c0-2.73,2.22-4.95,4.95-4.95h19.16c2.73,0,4.95,2.22,4.95,4.95v.58c0,2.73-2.22,4.95-4.95,4.95Zm-.05-5.54l-19.12,.05,.05,.54,19.07-.05v-.54Z"/>
      </g>
      <g>
        <ellipse cx="1413.07" cy="358.08" rx="6.11" ry="6.18"/>
        <path d="M1413.07,366.76c-4.75,0-8.61-3.89-8.61-8.68s3.86-8.68,8.61-8.68,8.62,3.89,8.62,8.68-3.87,8.68-8.62,8.68Zm0-12.35c-1.99,0-3.61,1.65-3.61,3.68s1.62,3.68,3.61,3.68,3.62-1.65,3.62-3.68-1.62-3.68-3.62-3.68Z"/>
      </g>
    </g>
    <rect class="cls-2" x="1380.86" y="264.76" width="98.18" height="26.76"/>
    <path d="M1477.31,109.4h-129.31c-1.38,0-2.5-1.12-2.5-2.5s1.12-2.5,2.5-2.5h129.31c1.38,0,2.5,1.12,2.5,2.5s-1.12,2.5-2.5,2.5Z"/>
    <path d="M1477.59,145.74h-129.31c-1.38,0-2.5-1.12-2.5-2.5s1.12-2.5,2.5-2.5h129.31c1.38,0,2.5,1.12,2.5,2.5s-1.12,2.5-2.5,2.5Z"/>
    <path d="M1478.13,182.08h-129.31c-1.38,0-2.5-1.12-2.5-2.5s1.12-2.5,2.5-2.5h129.31c1.38,0,2.5,1.12,2.5,2.5s-1.12,2.5-2.5,2.5Z"/>
    <path d="M1477.32,218.43h-128.24c-1.38,0-2.5-1.12-2.5-2.5s1.12-2.5,2.5-2.5h128.24c1.38,0,2.5,1.12,2.5,2.5s-1.12,2.5-2.5,2.5Z"/>
    <g>
      <path d="M1352.19,291.87c-.64,0-1.28-.24-1.77-.73-.98-.98-.98-2.56,0-3.54l16.23-16.23c.98-.98,2.56-.98,3.54,0s.98,2.56,0,3.54l-16.23,16.23c-.49,.49-1.13,.73-1.77,.73Z"/>
      <path d="M1368.42,291.87c-.64,0-1.28-.24-1.77-.73l-16.23-16.23c-.98-.98-.98-2.56,0-3.54s2.56-.98,3.54,0l16.23,16.23c.98,.98,.98,2.56,0,3.54-.49,.49-1.13,.73-1.77,.73Z"/>
    </g>
    <path d="M1394.2,286.4c-.5,0-1.01-.15-1.45-.47-1.12-.8-1.38-2.37-.58-3.49,1.21-1.7,2.39-3.42,3.54-5.16-2.53-3.18-2.96-7.38-3.04-10.77-.19-8.25,1.13-16.38,3.94-24.14,1.26-3.49,3.17-7.92,6.76-11.25,2.79-2.59,6-3.58,8.8-2.7,3.81,1.2,5.45,5.27,5.71,8.69,.42,5.48-1.48,10.64-3.28,15.04-3.41,8.3-7.5,16.33-12.21,23.96,.83,.31,1.76,.49,2.76,.54,2.23,.11,4.51-.44,6.46-.99,3.16-.89,6-2.01,8.48-3.33-1.25-2.16-2-4.7-2.12-7.36-.26-6.11,2.64-11.41,5.12-14.78,2.84-3.85,6.43-5.47,9.61-4.32,2.78,1.01,4.56,3.94,4.76,7.85,.32,6.29-2.57,12.97-7.74,17.87-.61,.58-1.24,1.13-1.91,1.66,.32,.18,.65,.33,.99,.45,2.22,.82,5.05,.6,7.76-.6,2.8-1.24,5.29-3.35,7.35-5.26,1.06-.99,2.31-2.15,4.06-2.64,2.28-.65,5.21,.21,6.17,2.78,.67,1.78,.06,3.41-.45,4.64,.05-.03,.1-.06,.15-.09l16.37-10.21c1.17-.73,2.71-.37,3.44,.8,.73,1.17,.37,2.71-.8,3.44l-16.37,10.21c-2.97,1.85-5.7,1.79-7.32-.17-1.69-2.05-.74-4.34-.17-5.7,.1-.25,.25-.6,.34-.88-.59,.17-1.26,.79-1.96,1.45-2.42,2.24-5.31,4.68-8.78,6.22-3.95,1.74-8.04,2-11.51,.71-1.35-.5-2.59-1.23-3.7-2.15-3.03,1.71-6.5,3.13-10.39,4.23-2.33,.66-5.12,1.3-8.06,1.17-1.9-.09-3.68-.53-5.25-1.26-1.11,1.68-2.25,3.34-3.42,4.97-.49,.68-1.26,1.04-2.04,1.04Zm15.89-53.29c-1.11,0-2.39,.82-3.32,1.68-2.19,2.03-3.87,4.9-5.46,9.29-2.6,7.18-3.82,14.69-3.65,22.33,.05,1.97,.22,4.28,1.03,6.17,4.33-7.13,8.11-14.59,11.28-22.31,1.59-3.88,3.26-8.38,2.92-12.77-.14-1.83-.88-3.87-2.22-4.29-.19-.06-.38-.08-.58-.08Zm20.52,17.41c-1.06,0-2.51,1.3-3.5,2.65-2,2.72-4.35,6.94-4.15,11.6,.07,1.75,.56,3.43,1.35,4.88,.69-.53,1.34-1.09,1.95-1.67,4.12-3.91,6.44-9.14,6.19-13.99-.09-1.72-.69-3.12-1.47-3.4-.12-.04-.25-.06-.38-.06Z"/>
  </g>
  <g>
    <rect class="cls-1" x="39.71" y="15.98" width="350" height="364.25"/>
    <path d="M389.71,382.73H39.71c-1.38,0-2.5-1.12-2.5-2.5V15.98c0-1.38,1.12-2.5,2.5-2.5H389.71c1.38,0,2.5,1.12,2.5,2.5V380.23c0,1.38-1.12,2.5-2.5,2.5Zm-347.5-5H387.21V18.48H42.21V377.73Z"/>
  </g>
  <g>
    <rect class="cls-3" x="40.18" y="15.98" width="349.06" height="61"/>
    <path d="M389.24,79.48H40.18c-1.38,0-2.5-1.12-2.5-2.5V15.98c0-1.38,1.12-2.5,2.5-2.5H389.24c1.38,0,2.5,1.12,2.5,2.5v61c0,1.38-1.12,2.5-2.5,2.5Zm-346.56-5H386.74V18.48H42.68v56Z"/>
  </g>
  <g>
    <g>
      <rect class="cls-2" x="89.71" y="242.38" width="250" height="70"/>
      <path d="M339.71,314.88H89.71c-1.38,0-2.5-1.12-2.5-2.5v-70c0-1.38,1.12-2.5,2.5-2.5h250c1.38,0,2.5,1.12,2.5,2.5v70c0,1.38-1.12,2.5-2.5,2.5Zm-247.5-5h245v-65H92.21v65Z"/>
    </g>
    <g>
      <path d="M124.78,287.88v-17.7h-6.96v-3.3h17.82v3.3h-6.96v17.7h-3.9Z"/>
      <path d="M134.56,287.88l9.45-21h3.84l9.48,21h-4.11l-8.1-18.93h1.56l-8.13,18.93h-3.99Zm4.35-4.86l1.08-3.06h11.31l1.05,3.06h-13.44Z"/>
      <path d="M160,287.88v-21h8.64c1.86,0,3.45,.29,4.79,.88,1.33,.59,2.35,1.45,3.07,2.57,.72,1.12,1.08,2.46,1.08,4.02s-.36,2.87-1.08,3.98c-.72,1.11-1.75,1.97-3.07,2.58-1.33,.61-2.93,.92-4.79,.92h-6.45l1.71-1.8v7.86h-3.9Zm3.9-7.44l-1.71-1.92h6.27c1.72,0,3.02-.36,3.89-1.09,.87-.73,1.31-1.75,1.31-3.08s-.44-2.34-1.31-3.08c-.87-.73-2.17-1.09-3.89-1.09h-6.27l1.71-1.92v12.18Z"/>
      <path d="M194.32,287.88v-17.7h-6.96v-3.3h17.82v3.3h-6.96v17.7h-3.9Z"/>
      <path d="M217.66,288.18c-1.62,0-3.13-.27-4.52-.81-1.39-.54-2.6-1.3-3.62-2.28-1.02-.98-1.81-2.12-2.37-3.43-.56-1.31-.84-2.74-.84-4.28s.28-3,.84-4.3c.56-1.31,1.35-2.45,2.37-3.42,1.02-.97,2.22-1.73,3.6-2.27s2.89-.81,4.53-.81,3.12,.26,4.5,.79c1.38,.53,2.57,1.28,3.58,2.25,1.01,.97,1.79,2.12,2.35,3.43,.56,1.32,.84,2.76,.84,4.32s-.28,3-.84,4.3c-.56,1.31-1.35,2.46-2.35,3.44-1.01,.98-2.21,1.74-3.58,2.26-1.38,.53-2.88,.79-4.5,.79Zm0-3.42c1.06,0,2.03-.18,2.92-.54,.89-.36,1.67-.87,2.33-1.53,.66-.66,1.17-1.44,1.54-2.34,.37-.9,.55-1.89,.55-2.97s-.18-2.07-.54-2.97c-.36-.9-.88-1.68-1.55-2.34-.67-.66-1.45-1.17-2.34-1.53-.89-.36-1.87-.54-2.92-.54s-2.05,.18-2.96,.54c-.91,.36-1.7,.88-2.35,1.54-.66,.67-1.18,1.45-1.56,2.34-.38,.89-.57,1.88-.57,2.96s.19,2.04,.57,2.94c.38,.9,.9,1.68,1.56,2.35,.66,.67,1.44,1.19,2.35,1.54,.91,.36,1.89,.54,2.96,.54Z"/>
      <path d="M247.87,288.18c-1.64,0-3.21-.24-4.7-.71s-2.68-1.07-3.58-1.81l1.35-3.03c.84,.66,1.88,1.21,3.12,1.65,1.24,.44,2.51,.66,3.81,.66,1.1,0,1.99-.12,2.67-.36,.68-.24,1.18-.57,1.5-.98,.32-.41,.48-.87,.48-1.39,0-.64-.23-1.16-.69-1.54-.46-.39-1.06-.7-1.79-.93-.73-.23-1.54-.44-2.43-.63-.89-.19-1.78-.42-2.67-.71-.89-.28-1.71-.63-2.44-1.06-.74-.43-1.33-1-1.79-1.72-.45-.72-.67-1.64-.67-2.76s.3-2.18,.92-3.13c.61-.95,1.54-1.71,2.79-2.28,1.25-.57,2.83-.85,4.75-.85,1.26,0,2.51,.16,3.75,.48,1.24,.32,2.32,.78,3.24,1.38l-1.23,3.03c-.94-.56-1.91-.97-2.91-1.25-1-.27-1.96-.4-2.88-.4-1.06,0-1.93,.13-2.61,.39-.68,.26-1.17,.61-1.48,1.04s-.46,.91-.46,1.42c0,.64,.23,1.16,.67,1.54,.45,.39,1.04,.7,1.77,.92,.73,.22,1.54,.43,2.44,.63,.9,.2,1.79,.44,2.67,.71,.88,.27,1.69,.62,2.43,1.05,.74,.43,1.33,1,1.79,1.71,.45,.71,.67,1.62,.67,2.71s-.31,2.16-.92,3.11-1.54,1.71-2.8,2.28c-1.26,.57-2.85,.85-4.77,.85Z"/>
      <path d="M260.23,287.88v-21h3.9v21h-3.9Z"/>
      <path d="M279.61,288.18c-1.64,0-3.15-.26-4.51-.79-1.37-.53-2.57-1.29-3.59-2.26s-1.81-2.12-2.37-3.42c-.56-1.3-.84-2.74-.84-4.32s.28-3.02,.84-4.32c.56-1.3,1.35-2.44,2.38-3.42,1.03-.98,2.23-1.73,3.6-2.26,1.37-.53,2.9-.79,4.58-.79s3.35,.29,4.78,.87c1.43,.58,2.63,1.43,3.62,2.55l-2.46,2.4c-.82-.82-1.71-1.42-2.66-1.81-.95-.39-2-.58-3.13-.58s-2.15,.18-3.08,.54c-.93,.36-1.74,.87-2.42,1.53-.68,.66-1.21,1.44-1.59,2.34-.38,.9-.57,1.89-.57,2.97s.19,2.04,.57,2.96c.38,.91,.91,1.7,1.59,2.35,.68,.66,1.48,1.17,2.4,1.53,.92,.36,1.94,.54,3.06,.54,1.04,0,2.04-.17,3.02-.5,.97-.33,1.89-.88,2.77-1.67l2.19,2.91c-1.08,.88-2.34,1.54-3.78,2s-2.91,.67-4.41,.67Zm4.53-3.18v-7.83h3.66v8.34l-3.66-.51Z"/>
      <path d="M292.96,287.88v-21h3.21l13.17,16.2h-1.59v-16.2h3.84v21h-3.21l-13.14-16.2h1.59v16.2h-3.87Z"/>
    </g>
  </g>
  <g>
    <path d="M289.71,141.44H135.71c-1.38,0-2.5-1.12-2.5-2.5s1.12-2.5,2.5-2.5h154c1.38,0,2.5,1.12,2.5,2.5s-1.12,2.5-2.5,2.5Z"/>
    <path d="M264.46,182.44h-103.5c-1.38,0-2.5-1.12-2.5-2.5s1.12-2.5,2.5-2.5h103.5c1.38,0,2.5,1.12,2.5,2.5s-1.12,2.5-2.5,2.5Z"/>
  </g>
  <g>
    <g>
      <circle cx="66.21" cy="46.48" r="4.5"/>
      <path d="M66.21,53.48c-3.86,0-7-3.14-7-7s3.14-7,7-7,7,3.14,7,7-3.14,7-7,7Zm0-9c-1.1,0-2,.9-2,2s.9,2,2,2,2-.9,2-2-.9-2-2-2Z"/>
    </g>
    <g>
      <circle cx="98.71" cy="46.48" r="4.5"/>
      <path d="M98.71,53.48c-3.86,0-7-3.14-7-7s3.14-7,7-7,7,3.14,7,7-3.14,7-7,7Zm0-9c-1.1,0-2,.9-2,2s.9,2,2,2,2-.9,2-2-.9-2-2-2Z"/>
    </g>
    <g>
      <circle cx="131.21" cy="46.48" r="4.5"/>
      <path d="M131.21,53.48c-3.86,0-7-3.14-7-7s3.14-7,7-7,7,3.14,7,7-3.14,7-7,7Zm0-9c-1.1,0-2,.9-2,2s.9,2,2,2,2-.9,2-2-.9-2-2-2Z"/>
    </g>
  </g>
  <g>
    <path d="M350.65,232.69c-.77,0-1.53-.35-2.02-1.02-.82-1.11-.57-2.68,.54-3.49l20.14-14.76c1.11-.81,2.68-.58,3.49,.54,.82,1.11,.57,2.68-.54,3.49l-20.14,14.76c-.45,.33-.96,.48-1.48,.48Z"/>
    <path d="M333.95,226.67h-.03c-1.38-.02-2.49-1.15-2.47-2.53l.26-19.97c.02-1.37,1.13-2.47,2.5-2.47h.03c1.38,.02,2.49,1.15,2.47,2.53l-.26,19.97c-.02,1.37-1.13,2.47-2.5,2.47Z"/>
    <path d="M355.81,249.89c-1.38,0-2.5-1.12-2.5-2.5,0-1.38,1.12-2.5,2.5-2.5h18.73s0-.01,0-.01c1.38,0,2.5,1.12,2.5,2.5,0,1.38-1.12,2.5-2.5,2.5h-18.73s0,.01,0,.01Z"/>
  </g>
  <g>
    <g>
      <rect class="cls-3" x="762.18" y="11.98" width="229.56" height="294.85"/>
      <path d="M991.75,309.33h-229.56c-1.38,0-2.5-1.12-2.5-2.5V11.98c0-1.38,1.12-2.5,2.5-2.5h229.56c1.38,0,2.5,1.12,2.5,2.5V306.83c0,1.38-1.12,2.5-2.5,2.5Zm-227.06-5h224.56V14.48h-224.56V304.33Z"/>
    </g>
    <g>
      <rect class="cls-3" x="721.93" y="46.43" width="229.56" height="294.85"/>
      <path d="M951.49,343.78h-229.56c-1.38,0-2.5-1.12-2.5-2.5V46.43c0-1.38,1.12-2.5,2.5-2.5h229.56c1.38,0,2.5,1.12,2.5,2.5V341.28c0,1.38-1.12,2.5-2.5,2.5Zm-227.06-5h224.56V48.93h-224.56V338.78Z"/>
    </g>
    <g>
      <rect class="cls-1" x="681.67" y="80.88" width="229.56" height="294.85"/>
      <path d="M911.23,378.23h-229.56c-1.38,0-2.5-1.12-2.5-2.5V80.88c0-1.38,1.12-2.5,2.5-2.5h229.56c1.38,0,2.5,1.12,2.5,2.5V375.73c0,1.38-1.12,2.5-2.5,2.5Zm-227.06-5h224.56V83.38h-224.56V373.23Z"/>
    </g>
    <g>
      <g>
        <rect class="cls-2" x="760.96" y="288.12" width="101.99" height="24.31"/>
        <path d="M863.2,145.91h-134.34c-1.38,0-2.5-1.12-2.5-2.5s1.12-2.5,2.5-2.5h134.34c1.38,0,2.5,1.12,2.5,2.5s-1.12,2.5-2.5,2.5Z"/>
        <path d="M863.48,182.63h-134.34c-1.38,0-2.5-1.12-2.5-2.5s1.12-2.5,2.5-2.5h134.34c1.38,0,2.5,1.12,2.5,2.5s-1.12,2.5-2.5,2.5Z"/>
        <path d="M864.05,219.35h-134.34c-1.38,0-2.5-1.12-2.5-2.5s1.12-2.5,2.5-2.5h134.34c1.38,0,2.5,1.12,2.5,2.5s-1.12,2.5-2.5,2.5Z"/>
        <path d="M863.21,256.07h-133.23c-1.38,0-2.5-1.12-2.5-2.5s1.12-2.5,2.5-2.5h133.23c1.38,0,2.5,1.12,2.5,2.5s-1.12,2.5-2.5,2.5Z"/>
        <g>
          <path d="M729.95,315.69c-.66,0-1.32-.26-1.81-.78-.95-1-.91-2.58,.09-3.53l17.28-16.4c1-.95,2.58-.91,3.53,.09,.95,1,.91,2.58-.09,3.53l-17.28,16.4c-.48,.46-1.1,.69-1.72,.69Z"/>
          <path d="M747.24,315.69c-.62,0-1.24-.23-1.72-.69l-17.28-16.4c-1-.95-1.04-2.53-.09-3.53,.95-1,2.53-1.04,3.53-.09l17.28,16.4c1,.95,1.04,2.53,.09,3.53-.49,.52-1.15,.78-1.81,.78Z"/>
        </g>
      </g>
      <path d="M862.44,315.14h-101.48c-1.38,0-2.5-1.12-2.5-2.5s1.12-2.5,2.5-2.5h101.48c1.38,0,2.5,1.12,2.5,2.5s-1.12,2.5-2.5,2.5Z"/>
    </g>
    <g>
      <path d="M666.64,67.4c-.76,0-1.51-.34-2-1l-14.76-19.59c-.83-1.1-.61-2.67,.49-3.5,1.1-.83,2.67-.61,3.5,.49l14.76,19.59c.83,1.1,.61,2.67-.49,3.5-.45,.34-.98,.5-1.5,.5Z"/>
      <path d="M660.62,83.64h-.03l-19.97-.25c-1.38-.02-2.49-1.15-2.47-2.53,.02-1.37,1.13-2.47,2.5-2.47h.03l19.97,.25c1.38,.02,2.49,1.15,2.47,2.53-.02,1.37-1.13,2.47-2.5,2.47Z"/>
      <path d="M683.84,39.16h0c1.38,0,2.5,1.12,2.5,2.5v18.22c0,1.38-1.12,2.5-2.5,2.5h0c-1.38,0-2.5-1.12-2.5-2.5v-18.22c0-1.38,1.12-2.5,2.5-2.5Z"/>
    </g>
  </g>
  <path d="M1478.71,293.73h-98c-1.38,0-2.5-1.12-2.5-2.5s1.12-2.5,2.5-2.5h98c1.38,0,2.5,1.12,2.5,2.5s-1.12,2.5-2.5,2.5Z"/>
  <g>
    <g>
      <path class="cls-3" d="M1568.14,310.33c11.57,14.73,24.77,34.94,17.53,54.42-3.17,8.55-10,15.67-18.39,19.22-12.59,5.33-26.07,2.47-38.53-1.79-11.31-3.87-23.18-7.82-34.42-12.48-6.14-2.55-36.65-9.92-35.06-17.91,1.08-5.41,6.35-8.92,11.76-7.84l24.46,3.09,4.94,.99h.04s-2.37-2.51-2.37-2.51c-.01,0-.02,0-.04,0l-40.1-42.26c-4.34-4.58-8.48-8.78-8.6-15.6-.05-3.16,1.93-5.01,5-5.71,2.48-.57,5.11,.02,7.38,1.15,6.01,2.96,10.41,8.82,14.94,13.59l18.3,19.29s.11,0,.08-.06c-1.65-3.44-.99-7.69,1.93-10.46,4.74-4.5,12.24-4.3,16.73,.43l6.29,6.63c-1.97-2.07-3.33-4.82-4.36-7.46-1.22-3.14-2.04-6.42-.43-9.6,1.14-2.24,3.92-3.6,6.34-3.77,2.71-.2,5.4,.84,7.28,2.82l7.15,7.54c-3.48-3.67-3.29-9.49,.46-12.91,3.68-3.37,9.46-2.93,12.89,.69,6.38,6.72,13.08,13.22,18.81,20.51Z"/>
      <path d="M1552.33,389.34c-8.77,0-17.26-2.37-24.4-4.81l-3.51-1.2c-10.27-3.5-20.9-7.12-31.06-11.33-1.19-.5-3.61-1.26-6.4-2.14-17.43-5.51-31.72-10.71-30.16-18.57,.66-3.28,2.55-6.1,5.32-7.95,2.75-1.83,6.05-2.5,9.29-1.87l21.98,2.78-37.56-39.58c-4.35-4.59-8.86-9.33-8.99-16.97-.07-4.19,2.47-7.17,6.95-8.19,3.57-.83,6.89,.28,9.04,1.35,5.18,2.55,9.08,6.89,12.86,11.08,.93,1.03,1.85,2.06,2.78,3.03l13.52,14.25c.52-2.08,1.62-4.02,3.26-5.57,2.78-2.63,6.43-4.02,10.24-3.93,2.31,.06,4.52,.66,6.49,1.74-.37-2.27-.25-4.68,.98-7.11,1.66-3.25,5.41-4.92,8.39-5.14,3.42-.25,6.9,1.09,9.27,3.59l.6,.63c.49-2.35,1.7-4.48,3.52-6.13,4.61-4.22,11.96-3.85,16.39,.81,1.51,1.59,3.04,3.17,4.57,4.75,4.89,5.05,9.95,10.28,14.4,15.94h0c12.34,15.7,25.53,36.35,17.9,56.83-3.39,9.14-10.78,16.86-19.76,20.65-5.25,2.22-10.63,3.08-15.91,3.08Zm-83.28-43.1c-3.5,0-6.64,2.47-7.35,6.03-.15,.75,1.38,3.01,8.24,6.15,5.76,2.64,13.14,4.97,18.53,6.67,3.02,.96,5.41,1.71,6.8,2.29,10.01,4.15,20.55,7.74,30.75,11.22l3.52,1.2c11.25,3.85,24.42,7.07,36.75,1.85,7.74-3.27,14.1-9.91,17.02-17.79,6.76-18.16-5.62-37.33-17.15-52h0c-4.29-5.46-9.26-10.59-14.06-15.55-1.54-1.59-3.08-3.18-4.6-4.78-2.56-2.7-6.78-2.96-9.39-.56-1.31,1.2-2.07,2.83-2.13,4.6-.06,1.77,.57,3.46,1.79,4.75h0c.95,1.01,.91,2.59-.09,3.54-1,.95-2.58,.91-3.53-.09l-7.15-7.54c-1.35-1.42-3.33-2.18-5.28-2.04-1.82,.13-3.67,1.17-4.3,2.42-1.12,2.22-.6,4.63,.54,7.56,1.15,2.95,2.41,5.12,3.84,6.63h0c.95,1.01,.91,2.59-.09,3.54-1,.95-2.58,.91-3.53-.09h-.01s-6.28-6.63-6.28-6.63c-1.71-1.81-4.03-2.84-6.52-2.9-2.5-.06-4.86,.84-6.67,2.56-2.07,1.96-2.63,5-1.4,7.57,.53,1.11,.16,2.51-.85,3.21-1.04,.72-2.42,.58-3.3-.34l-18.31-19.29c-.96-1.01-1.91-2.06-2.87-3.13-3.46-3.84-7.04-7.81-11.36-9.94-2.02-1-4.04-1.34-5.71-.96-3.11,.71-3.08,2.48-3.07,3.24,.1,5.69,3.58,9.36,7.62,13.61l40.15,42.31c.1,.08,.2,.17,.29,.26l2.38,2.52c.75,.8,.9,1.99,.36,2.94-.54,.96-1.63,1.45-2.71,1.21l-4.85-.98-24.37-3.08c-.06,0-.12-.02-.18-.03-.5-.1-.99-.15-1.47-.15Zm23.73-29.26s0,0,0,.01c0,0,0,0,0-.01Z"/>
    </g>
    <g>
      <rect class="cls-2" x="1547.02" y="364.34" width="64" height="25.68" transform="translate(173.94 1190.4) rotate(-43.5)"/>
      <path d="M1564.65,411.02s-.04,0-.07,0c-.66-.02-1.29-.3-1.75-.78l-17.68-18.63c-.95-1-.91-2.58,.09-3.53l46.43-44.05c1-.95,2.58-.91,3.53,.09l17.68,18.63c.46,.48,.7,1.12,.69,1.79s-.3,1.29-.78,1.75l-46.43,44.05c-.46,.44-1.08,.69-1.72,.69Zm-14.14-21.04l14.23,15,42.8-40.61-14.24-15-42.8,40.61Z"/>
    </g>
    <path d="M1505.22,330.17c-.69,0-1.37-.28-1.87-.83l-13.38-14.99c-.92-1.03-.83-2.61,.2-3.53,1.03-.92,2.61-.83,3.53,.2l13.38,14.99c.92,1.03,.83,2.61-.2,3.53-.48,.43-1.07,.63-1.66,.63Z"/>
    <g>
      <line class="cls-3" x1="1500.46" y1="348.03" x2="1500.42" y2="348.02"/>
      <path d="M1500.46,350.53c-.17,0-.35-.02-.53-.06h-.04c-1.35-.3-2.21-1.63-1.92-2.98,.29-1.35,1.62-2.2,2.97-1.92,1.35,.29,2.22,1.63,1.93,2.98-.25,1.17-1.28,1.98-2.43,1.98Z"/>
    </g>
  </g>
  <g>
    <polygon class="cls-3" points="377.71 353.12 330.1 303.39 330.05 372.23 344 354.27 357.75 388.57 368.97 384.07 355.22 349.77 377.71 353.12"/>
    <path d="M357.75,391.07c-.33,0-.67-.07-.98-.2-.61-.26-1.09-.75-1.34-1.37l-12.13-30.26-11.27,14.52c-.66,.84-1.78,1.18-2.79,.83-1.01-.35-1.69-1.3-1.69-2.37l.05-68.84c0-1.02,.62-1.94,1.57-2.32,.95-.38,2.03-.15,2.74,.59l47.61,49.73c.74,.77,.91,1.93,.41,2.88-.49,.95-1.53,1.49-2.59,1.32l-18.18-2.7,12.13,30.26c.51,1.28-.11,2.74-1.39,3.25l-11.22,4.5c-.3,.12-.61,.18-.93,.18Zm-13.76-39.3c.12,0,.23,0,.35,.02,.89,.12,1.64,.71,1.97,1.54l12.83,31.98,6.58-2.64-12.83-31.98c-.33-.83-.2-1.78,.36-2.48s1.45-1.05,2.33-.92l15.27,2.27-38.25-39.96-.04,55.32,9.47-12.19c.48-.62,1.21-.97,1.97-.97Z"/>
  </g>
</svg>