<svg width="40" height="35" viewBox="0 0 40 35" fill="none" xmlns="http://www.w3.org/2000/svg">
<path d="M29.5 17.5V18H30H36.25C38.0442 18 39.5 19.4558 39.5 21.25V31.25C39.5 33.0442 38.0442 34.5 36.25 34.5H26.25C24.4558 34.5 23 33.0442 23 31.25V12.5C23 5.86989 28.3699 0.5 35 0.5H35.625C36.3879 0.5 37 1.11208 37 1.875V5.625C37 6.38792 36.3879 7 35.625 7H35C31.966 7 29.5 9.46605 29.5 12.5V17.5ZM7 17.5V18H7.5H13.75C15.5442 18 17 19.4558 17 21.25V31.25C17 33.0442 15.5442 34.5 13.75 34.5H3.75C1.95583 34.5 0.5 33.0442 0.5 31.25V12.5C0.5 5.86989 5.86989 0.5 12.5 0.5H13.125C13.8879 0.5 14.5 1.11208 14.5 1.875V5.625C14.5 6.38792 13.8879 7 13.125 7H12.5C9.46605 7 7 9.46605 7 12.5V17.5Z" fill="#FED02F" stroke="black"/>
</svg>
