<svg width="30" height="31" viewBox="0 0 30 31" fill="none" xmlns="http://www.w3.org/2000/svg">
<path d="M15 5.84698C11.7944 5.84698 9.19355 8.44779 9.19355 11.6534C9.19355 14.8591 11.7944 17.4599 15 17.4599C18.2056 17.4599 20.8065 14.8591 20.8065 11.6534C20.8065 8.44779 18.2056 5.84698 15 5.84698ZM15 14.5567C13.3972 14.5567 12.0968 13.2563 12.0968 11.6534C12.0968 10.0506 13.3972 8.7502 15 8.7502C16.6028 8.7502 17.9032 10.0506 17.9032 11.6534C17.9032 13.2563 16.6028 14.5567 15 14.5567ZM15 0.0405273C6.71371 0.0405273 0 6.75424 0 15.0405C0 23.3268 6.71371 30.0405 15 30.0405C23.2863 30.0405 30 23.3268 30 15.0405C30 6.75424 23.2863 0.0405273 15 0.0405273ZM15 27.1373C11.994 27.1373 9.24798 26.0304 7.13105 24.2099C8.03226 22.8188 9.5746 21.8752 11.3407 21.8208C12.5988 22.2079 13.7964 22.4014 15 22.4014C16.2036 22.4014 17.4012 22.2139 18.6593 21.8208C20.4254 21.8813 21.9677 22.8188 22.869 24.2099C20.752 26.0304 18.006 27.1373 15 27.1373ZM24.8407 22.0506C23.3649 20.1514 21.0847 18.9115 18.4839 18.9115C17.8669 18.9115 16.9113 19.4921 15 19.4921C13.0948 19.4921 12.1331 18.9115 11.5161 18.9115C8.92137 18.9115 6.64113 20.1514 5.15927 22.0506C3.74395 20.0728 2.90323 17.6534 2.90323 15.0405C2.90323 8.36916 8.32863 2.94375 15 2.94375C21.6714 2.94375 27.0968 8.36916 27.0968 15.0405C27.0968 17.6534 26.256 20.0728 24.8407 22.0506Z" fill="black"/>
</svg>
