<?xml version="1.0" encoding="UTF-8"?>
<svg id="_Слой_1" data-name="Слой 1" xmlns="http://www.w3.org/2000/svg" viewBox="0 0 303.79 221.54">
  <defs>
    <style>
      .cls-1 {
        fill: #fff;
      }

      .cls-2 {
        fill: #f7c930;
      }
    </style>
  </defs>
  <g>
    <g>
      <g>
        <path class="cls-2" d="M84.3,175.48c7.41,0,13.05-6.64,11.84-13.95-1.86-11.25-4.78-27.07-8.13-38.8-5.32-18.62-18.86-34.24-38.7-34.24h0c-19.84,0-33.79,15.5-38.7,34.24-2.81,10.72-5.87,27.03-7.91,38.68-1.29,7.34,4.36,14.07,11.82,14.07H84.3Z"/>
        <path d="M84.3,177.98H14.5c-4.3,0-8.34-1.89-11.11-5.18-2.76-3.29-3.92-7.6-3.17-11.82,2.07-11.79,5.13-28.11,7.96-38.88,5.76-21.93,21.9-36.1,41.12-36.1,22.71,0,36.12,18.62,41.11,36.05,3.38,11.84,6.33,27.78,8.2,39.07,.7,4.2-.49,8.48-3.24,11.73-2.76,3.26-6.79,5.12-11.06,5.12ZM49.3,91c-16.88,0-31.12,12.71-36.28,32.37-2.78,10.6-5.81,26.77-7.87,38.47-.49,2.77,.27,5.59,2.08,7.74,1.81,2.15,4.46,3.39,7.28,3.39H84.3c2.8,0,5.44-1.22,7.25-3.36,1.81-2.13,2.58-4.93,2.12-7.68-1.85-11.16-4.75-26.91-8.07-38.52-4.48-15.68-16.37-32.43-36.3-32.43Z"/>
      </g>
      <g>
        <circle class="cls-1" cx="49.3" cy="62.5" r="25.99"/>
        <path d="M49.3,91c-15.71,0-28.5-12.78-28.5-28.49s12.78-28.5,28.5-28.5,28.5,12.78,28.5,28.5-12.78,28.49-28.5,28.49Zm0-51.99c-12.96,0-23.5,10.54-23.5,23.5s10.54,23.49,23.5,23.49,23.5-10.54,23.5-23.49-10.54-23.5-23.5-23.5Z"/>
      </g>
    </g>
    <g>
      <g>
        <path class="cls-2" d="M140.96,197.89c7.41,0,13.05-6.64,11.84-13.95-1.86-11.25-4.78-27.07-8.13-38.8-5.32-18.62-18.86-34.24-38.7-34.24h0c-19.84,0-33.79,15.5-38.7,34.24-2.81,10.72-5.87,27.03-7.91,38.68-1.29,7.34,4.36,14.07,11.82,14.07h69.79Z"/>
        <path d="M140.96,200.39H71.17c-4.3,0-8.35-1.89-11.11-5.18-2.76-3.29-3.92-7.6-3.17-11.82,2.07-11.79,5.13-28.11,7.96-38.88,5.76-21.93,21.9-36.1,41.12-36.1,22.71,0,36.12,18.62,41.11,36.05,3.39,11.85,6.33,27.79,8.2,39.07,.7,4.2-.49,8.48-3.24,11.73-2.76,3.26-6.79,5.12-11.06,5.12Zm-35-86.98c-16.88,0-31.12,12.71-36.28,32.37-2.78,10.6-5.81,26.77-7.87,38.47-.49,2.77,.27,5.59,2.08,7.74,1.81,2.15,4.46,3.39,7.28,3.39h69.79c2.8,0,5.44-1.22,7.25-3.36,1.81-2.13,2.58-4.93,2.12-7.68-1.85-11.16-4.75-26.9-8.07-38.52-4.48-15.68-16.37-32.43-36.3-32.43Z"/>
      </g>
      <g>
        <circle class="cls-1" cx="105.96" cy="84.42" r="25.99"/>
        <path d="M105.96,112.91c-15.71,0-28.49-12.78-28.49-28.49s12.78-28.5,28.49-28.5,28.5,12.78,28.5,28.5-12.78,28.49-28.5,28.49Zm0-51.99c-12.96,0-23.49,10.54-23.49,23.5s10.54,23.49,23.49,23.49,23.5-10.54,23.5-23.49-10.54-23.5-23.5-23.5Z"/>
      </g>
    </g>
  </g>
  <path d="M180.59,219.84c-1.38,0-2.5-1.12-2.5-2.5v-10.23c0-1.38,1.12-2.5,2.5-2.5s2.5,1.12,2.5,2.5v10.23c0,1.38-1.12,2.5-2.5,2.5Zm0-20.46c-1.38,0-2.5-1.12-2.5-2.5v-10.23c0-1.38,1.12-2.5,2.5-2.5s2.5,1.12,2.5,2.5v10.23c0,1.38-1.12,2.5-2.5,2.5Zm0-20.46c-1.38,0-2.5-1.12-2.5-2.5v-10.23c0-1.38,1.12-2.5,2.5-2.5s2.5,1.12,2.5,2.5v10.23c0,1.38-1.12,2.5-2.5,2.5Zm0-20.46c-1.38,0-2.5-1.12-2.5-2.5v-10.23c0-1.38,1.12-2.5,2.5-2.5s2.5,1.12,2.5,2.5v10.23c0,1.38-1.12,2.5-2.5,2.5Zm0-20.46c-1.38,0-2.5-1.12-2.5-2.5v-10.23c0-1.38,1.12-2.5,2.5-2.5s2.5,1.12,2.5,2.5v10.23c0,1.38-1.12,2.5-2.5,2.5Zm0-20.46c-1.38,0-2.5-1.12-2.5-2.5v-10.23c0-1.38,1.12-2.5,2.5-2.5s2.5,1.12,2.5,2.5v10.23c0,1.38-1.12,2.5-2.5,2.5Zm0-20.46c-1.38,0-2.5-1.12-2.5-2.5v-10.23c0-1.38,1.12-2.5,2.5-2.5s2.5,1.12,2.5,2.5v10.23c0,1.38-1.12,2.5-2.5,2.5Zm0-20.46c-1.38,0-2.5-1.12-2.5-2.5v-10.23c0-1.38,1.12-2.5,2.5-2.5s2.5,1.12,2.5,2.5v10.23c0,1.38-1.12,2.5-2.5,2.5Zm0-20.46c-1.38,0-2.5-1.12-2.5-2.5v-10.23c0-1.38,1.12-2.5,2.5-2.5s2.5,1.12,2.5,2.5v10.23c0,1.38-1.12,2.5-2.5,2.5Zm0-20.46c-1.38,0-2.5-1.12-2.5-2.5v-10.23c0-1.38,1.12-2.5,2.5-2.5s2.5,1.12,2.5,2.5v10.23c0,1.38-1.12,2.5-2.5,2.5Zm0-20.46c-1.38,0-2.5-1.12-2.5-2.5V2.5C178.09,1.12,179.21,0,180.59,0s2.5,1.12,2.5,2.5V12.73c0,1.38-1.12,2.5-2.5,2.5Z"/>
  <g>
    <g>
      <path class="cls-2" d="M289.28,178.69c7.41,0,13.05-6.64,11.84-13.95-1.86-11.25-4.78-27.07-8.13-38.8-5.32-18.62-18.86-34.24-38.7-34.24h0c-19.84,0-33.79,15.5-38.7,34.24-2.81,10.72-5.87,27.03-7.91,38.68-1.29,7.34,4.36,14.07,11.82,14.07h69.79Z"/>
      <path d="M289.28,181.19h-69.79c-4.3,0-8.34-1.89-11.11-5.18-2.76-3.29-3.92-7.6-3.17-11.82,2.07-11.79,5.13-28.11,7.96-38.88,5.76-21.93,21.9-36.1,41.12-36.1,22.71,0,36.12,18.62,41.11,36.05,3.38,11.83,6.33,27.78,8.2,39.07,.7,4.21-.49,8.48-3.24,11.73-2.76,3.26-6.79,5.12-11.06,5.12Zm-35-86.98c-16.88,0-31.12,12.71-36.28,32.37-2.78,10.6-5.81,26.77-7.87,38.47-.49,2.77,.27,5.59,2.08,7.74,1.81,2.15,4.46,3.39,7.28,3.39h69.79c2.8,0,5.44-1.22,7.25-3.36,1.81-2.13,2.58-4.93,2.12-7.68-1.85-11.16-4.75-26.91-8.07-38.52-4.48-15.68-16.37-32.43-36.3-32.43Z"/>
    </g>
    <g>
      <circle class="cls-1" cx="254.29" cy="65.71" r="25.99"/>
      <path d="M254.29,94.21c-15.71,0-28.5-12.78-28.5-28.5s12.78-28.49,28.5-28.49,28.5,12.78,28.5,28.49-12.78,28.5-28.5,28.5Zm0-51.99c-12.96,0-23.5,10.54-23.5,23.49s10.54,23.5,23.5,23.5,23.5-10.54,23.5-23.5-10.54-23.49-23.5-23.49Z"/>
    </g>
  </g>
</svg>