<svg width="357" height="369" viewBox="0 0 357 369" fill="none" xmlns="http://www.w3.org/2000/svg">
<path d="M353.59 2.5H124.03V297.35H353.59V2.5Z" fill="#F2F2F2"/>
<path d="M353.6 299.85H124.04C122.66 299.85 121.54 298.73 121.54 297.35V2.5C121.54 1.12 122.66 0 124.04 0H353.6C354.98 0 356.1 1.12 356.1 2.5V297.35C356.1 298.73 354.98 299.85 353.6 299.85ZM126.54 294.85H351.1V5H126.54V294.85Z" fill="black"/>
<path d="M313.34 36.9502H83.7802V331.8H313.34V36.9502Z" fill="#F2F2F2"/>
<path d="M313.34 334.3H83.7802C82.4002 334.3 81.2802 333.18 81.2802 331.8V36.9502C81.2802 35.5702 82.4002 34.4502 83.7802 34.4502H313.34C314.72 34.4502 315.84 35.5702 315.84 36.9502V331.8C315.84 333.18 314.72 334.3 313.34 334.3ZM86.2802 329.3H310.84V39.4502H86.2802V329.3Z" fill="black"/>
<path d="M273.08 71.3999H43.5202V366.25H273.08V71.3999Z" fill="white"/>
<path d="M273.08 368.75H43.5202C42.1402 368.75 41.0202 367.63 41.0202 366.25V71.3999C41.0202 70.0199 42.1402 68.8999 43.5202 68.8999H273.08C274.46 68.8999 275.58 70.0199 275.58 71.3999V366.25C275.58 367.63 274.46 368.75 273.08 368.75ZM46.0202 363.75H270.58V73.8999H46.0202V363.75Z" fill="black"/>
<path d="M224.8 278.64H122.81V302.95H224.8V278.64Z" fill="#F9CB30"/>
<path d="M225.05 136.43H90.7102C89.3302 136.43 88.2102 135.31 88.2102 133.93C88.2102 132.55 89.3302 131.43 90.7102 131.43H225.05C226.43 131.43 227.55 132.55 227.55 133.93C227.55 135.31 226.43 136.43 225.05 136.43Z" fill="black"/>
<path d="M225.33 173.15H90.9902C89.6102 173.15 88.4902 172.03 88.4902 170.65C88.4902 169.27 89.6102 168.15 90.9902 168.15H225.33C226.71 168.15 227.83 169.27 227.83 170.65C227.83 172.03 226.71 173.15 225.33 173.15Z" fill="black"/>
<path d="M225.9 209.87H91.5602C90.1802 209.87 89.0602 208.75 89.0602 207.37C89.0602 205.99 90.1802 204.87 91.5602 204.87H225.9C227.28 204.87 228.4 205.99 228.4 207.37C228.4 208.75 227.28 209.87 225.9 209.87Z" fill="black"/>
<path d="M225.06 246.59H91.8302C90.4502 246.59 89.3302 245.47 89.3302 244.09C89.3302 242.71 90.4502 241.59 91.8302 241.59H225.06C226.44 241.59 227.56 242.71 227.56 244.09C227.56 245.47 226.44 246.59 225.06 246.59Z" fill="black"/>
<path d="M91.8002 306.21C91.1402 306.21 90.4802 305.95 89.9902 305.43C89.0402 304.43 89.0802 302.85 90.0802 301.9L107.36 285.5C108.36 284.55 109.94 284.59 110.89 285.59C111.84 286.59 111.8 288.17 110.8 289.12L93.5202 305.52C93.0402 305.98 92.4202 306.21 91.8002 306.21Z" fill="black"/>
<path d="M109.09 306.21C108.47 306.21 107.85 305.98 107.37 305.52L90.0902 289.12C89.0902 288.17 89.0502 286.59 90.0002 285.59C90.9502 284.59 92.5302 284.55 93.5302 285.5L110.81 301.9C111.81 302.85 111.85 304.43 110.9 305.43C110.41 305.95 109.75 306.21 109.09 306.21Z" fill="black"/>
<path d="M224.29 305.66H122.81C121.43 305.66 120.31 304.54 120.31 303.16C120.31 301.78 121.43 300.66 122.81 300.66H224.29C225.67 300.66 226.79 301.78 226.79 303.16C226.79 304.54 225.67 305.66 224.29 305.66Z" fill="black"/>
<path d="M28.4902 57.9203C27.7302 57.9203 26.9802 57.5803 26.4902 56.9203L11.7302 37.3303C10.9002 36.2303 11.1202 34.6603 12.2202 33.8303C13.3202 33.0003 14.8902 33.2203 15.7202 34.3203L30.4802 53.9103C31.3102 55.0103 31.0902 56.5803 29.9902 57.4103C29.5402 57.7503 29.0102 57.9103 28.4902 57.9103V57.9203Z" fill="black"/>
<path d="M22.4702 74.1602H22.4403L2.47024 73.9102C1.09024 73.8902 -0.0197339 72.7602 0.000266093 71.3802C0.0202661 70.0102 1.13027 68.9102 2.50027 68.9102H2.53023L22.5003 69.1602C23.8803 69.1802 24.9902 70.3102 24.9702 71.6902C24.9502 73.0602 23.8402 74.1602 22.4702 74.1602Z" fill="black"/>
<path d="M45.6902 29.6802C47.0702 29.6802 48.1902 30.8002 48.1902 32.1802V50.4002C48.1902 51.7802 47.0702 52.9002 45.6902 52.9002C44.3102 52.9002 43.1902 51.7802 43.1902 50.4002V32.1802C43.1902 30.8002 44.3102 29.6802 45.6902 29.6802Z" fill="black"/>
</svg>
