<svg width="332" height="398" viewBox="0 0 332 398" fill="none" xmlns="http://www.w3.org/2000/svg">
<path d="M259.5 2.5H2.49011V362.5H259.5V2.5Z" fill="#F2F2F2"/>
<path d="M259.5 365H2.5C1.12 365 0 363.88 0 362.5V2.5C0 1.12 1.12 0 2.5 0H259.5C260.88 0 262 1.12 262 2.5V362.5C262 363.88 260.88 365 259.5 365ZM5 360H257V5H5V360Z" fill="black"/>
<path d="M241.64 35.4399H20.3501V326.81H241.64V35.4399Z" fill="white"/>
<path d="M241.64 329.31H20.3501C18.9701 329.31 17.8501 328.19 17.8501 326.81V35.4399C17.8501 34.0599 18.9701 32.9399 20.3501 32.9399H241.64C243.02 32.9399 244.14 34.0599 244.14 35.4399V326.81C244.14 328.19 243.02 329.31 241.64 329.31ZM22.8501 324.31H239.14V37.9399H22.8501V324.31Z" fill="black"/>
<path d="M140.58 17.4004H121.41C120.057 17.4004 118.96 18.4973 118.96 19.8504V20.4404C118.96 21.7935 120.057 22.8904 121.41 22.8904H140.58C141.933 22.8904 143.03 21.7935 143.03 20.4404V19.8504C143.03 18.4973 141.933 17.4004 140.58 17.4004Z" fill="#F2F2F2"/>
<path d="M140.58 25.3902H121.42C118.69 25.3902 116.47 23.1702 116.47 20.4402V19.8602C116.47 17.1302 118.69 14.9102 121.42 14.9102H140.58C143.31 14.9102 145.53 17.1302 145.53 19.8602V20.4402C145.53 23.1702 143.31 25.3902 140.58 25.3902ZM140.53 19.8502L121.41 19.9002L121.46 20.4402L140.53 20.3902V19.8502Z" fill="black"/>
<path d="M131 351.03C134.374 351.03 137.11 348.263 137.11 344.85C137.11 341.437 134.374 338.67 131 338.67C127.626 338.67 124.89 341.437 124.89 344.85C124.89 348.263 127.626 351.03 131 351.03Z" fill="black"/>
<path d="M131 353.53C126.25 353.53 122.39 349.64 122.39 344.85C122.39 340.06 126.25 336.17 131 336.17C135.75 336.17 139.62 340.06 139.62 344.85C139.62 349.64 135.75 353.53 131 353.53ZM131 341.18C129.01 341.18 127.39 342.83 127.39 344.86C127.39 346.89 129.01 348.54 131 348.54C132.99 348.54 134.62 346.89 134.62 344.86C134.62 342.83 133 341.18 131 341.18Z" fill="black"/>
<path d="M196.97 251.53H98.79V278.29H196.97V251.53Z" fill="#F9CB30"/>
<path d="M195.24 96.1699H65.9301C64.5501 96.1699 63.4301 95.0499 63.4301 93.6699C63.4301 92.2899 64.5501 91.1699 65.9301 91.1699H195.24C196.62 91.1699 197.74 92.2899 197.74 93.6699C197.74 95.0499 196.62 96.1699 195.24 96.1699Z" fill="black"/>
<path d="M195.52 132.51H66.2101C64.8301 132.51 63.7101 131.39 63.7101 130.01C63.7101 128.63 64.8301 127.51 66.2101 127.51H195.52C196.9 127.51 198.02 128.63 198.02 130.01C198.02 131.39 196.9 132.51 195.52 132.51Z" fill="black"/>
<path d="M196.06 168.85H66.75C65.37 168.85 64.25 167.73 64.25 166.35C64.25 164.97 65.37 163.85 66.75 163.85H196.06C197.44 163.85 198.56 164.97 198.56 166.35C198.56 167.73 197.44 168.85 196.06 168.85Z" fill="black"/>
<path d="M195.25 205.2H67.01C65.63 205.2 64.51 204.08 64.51 202.7C64.51 201.32 65.63 200.2 67.01 200.2H195.25C196.63 200.2 197.75 201.32 197.75 202.7C197.75 204.08 196.63 205.2 195.25 205.2Z" fill="black"/>
<path d="M70.12 278.64C69.48 278.64 68.8401 278.4 68.3501 277.91C67.3701 276.93 67.3701 275.35 68.3501 274.37L84.5801 258.14C85.5601 257.16 87.14 257.16 88.12 258.14C89.1 259.12 89.1 260.7 88.12 261.68L71.89 277.91C71.4 278.4 70.76 278.64 70.12 278.64Z" fill="black"/>
<path d="M86.3501 278.64C85.7101 278.64 85.0701 278.4 84.5801 277.91L68.3501 261.68C67.3701 260.7 67.3701 259.12 68.3501 258.14C69.3301 257.16 70.91 257.16 71.89 258.14L88.12 274.37C89.1 275.35 89.1 276.93 88.12 277.91C87.63 278.4 86.9901 278.64 86.3501 278.64Z" fill="black"/>
<path d="M112.13 273.17C111.63 273.17 111.12 273.02 110.68 272.7C109.56 271.9 109.3 270.33 110.1 269.21C111.31 267.51 112.49 265.79 113.64 264.05C111.11 260.87 110.68 256.67 110.6 253.28C110.41 245.03 111.73 236.9 114.54 229.14C115.8 225.65 117.71 221.22 121.3 217.89C124.09 215.3 127.3 214.31 130.1 215.19C133.91 216.39 135.55 220.46 135.81 223.88C136.23 229.36 134.33 234.52 132.53 238.92C129.12 247.22 125.03 255.25 120.32 262.88C121.15 263.19 122.08 263.37 123.08 263.42C125.31 263.53 127.59 262.98 129.54 262.43C132.7 261.54 135.54 260.42 138.02 259.1C136.77 256.94 136.02 254.4 135.9 251.74C135.64 245.63 138.54 240.33 141.02 236.96C143.86 233.11 147.45 231.49 150.63 232.64C153.41 233.65 155.19 236.58 155.39 240.49C155.71 246.78 152.82 253.46 147.65 258.36C147.04 258.94 146.41 259.49 145.74 260.02C146.06 260.2 146.39 260.35 146.73 260.47C148.95 261.29 151.78 261.07 154.49 259.87C157.29 258.63 159.78 256.52 161.84 254.61C162.9 253.62 164.15 252.46 165.9 251.97C168.18 251.32 171.11 252.18 172.07 254.75C172.74 256.53 172.13 258.16 171.62 259.39C171.67 259.36 171.72 259.33 171.77 259.3L188.14 249.09C189.31 248.36 190.85 248.72 191.58 249.89C192.31 251.06 191.95 252.6 190.78 253.33L174.41 263.54C171.44 265.39 168.71 265.33 167.09 263.37C165.4 261.32 166.35 259.03 166.92 257.67C167.02 257.42 167.17 257.07 167.26 256.79C166.67 256.96 166 257.58 165.3 258.24C162.88 260.48 159.99 262.92 156.52 264.46C152.57 266.2 148.48 266.46 145.01 265.17C143.66 264.67 142.42 263.94 141.31 263.02C138.28 264.73 134.81 266.15 130.92 267.25C128.59 267.91 125.8 268.55 122.86 268.42C120.96 268.33 119.18 267.89 117.61 267.16C116.5 268.84 115.36 270.5 114.19 272.13C113.7 272.81 112.93 273.17 112.15 273.17H112.13ZM128.02 219.88C126.91 219.88 125.63 220.7 124.7 221.56C122.51 223.59 120.83 226.46 119.24 230.85C116.64 238.03 115.42 245.54 115.59 253.18C115.64 255.15 115.81 257.46 116.62 259.35C120.95 252.22 124.73 244.76 127.9 237.04C129.49 233.16 131.16 228.66 130.82 224.27C130.68 222.44 129.94 220.4 128.6 219.98C128.41 219.92 128.22 219.9 128.02 219.9V219.88ZM148.54 237.29C147.48 237.29 146.03 238.59 145.04 239.94C143.04 242.66 140.69 246.88 140.89 251.54C140.96 253.29 141.45 254.97 142.24 256.42C142.93 255.89 143.58 255.33 144.19 254.75C148.31 250.84 150.63 245.61 150.38 240.76C150.29 239.04 149.69 237.64 148.91 237.36C148.79 237.32 148.66 237.3 148.53 237.3L148.54 237.29Z" fill="black"/>
<path d="M196.64 280.5H98.64C97.26 280.5 96.14 279.38 96.14 278C96.14 276.62 97.26 275.5 98.64 275.5H196.64C198.02 275.5 199.14 276.62 199.14 278C199.14 279.38 198.02 280.5 196.64 280.5Z" fill="black"/>
<path d="M286.07 297.1C297.64 311.83 310.84 332.04 303.6 351.52C300.43 360.07 293.6 367.19 285.21 370.74C272.62 376.07 259.14 373.21 246.68 368.95C235.37 365.08 223.5 361.13 212.26 356.47C206.12 353.92 175.61 346.55 177.2 338.56C178.28 333.15 183.55 329.64 188.96 330.72L213.42 333.81L218.36 334.8H218.4L216.03 332.29C216.02 332.29 216.01 332.29 215.99 332.29L175.89 290.03C171.55 285.45 167.41 281.25 167.29 274.43C167.24 271.27 169.22 269.42 172.29 268.72C174.77 268.15 177.4 268.74 179.67 269.87C185.68 272.83 190.08 278.69 194.61 283.46L212.91 302.75C212.91 302.75 213.02 302.75 212.99 302.69C211.34 299.25 212 295 214.92 292.23C219.66 287.73 227.16 287.93 231.65 292.66L237.94 299.29C235.97 297.22 234.61 294.47 233.58 291.83C232.36 288.69 231.54 285.41 233.15 282.23C234.29 279.99 237.07 278.63 239.49 278.46C242.2 278.26 244.89 279.3 246.77 281.28L253.92 288.82C250.44 285.15 250.63 279.33 254.38 275.91C258.06 272.54 263.84 272.98 267.27 276.6C273.65 283.32 280.35 289.82 286.08 297.11L286.07 297.1Z" fill="#F2F2F2"/>
<path d="M270.26 376.11C261.49 376.11 253 373.74 245.86 371.3L242.35 370.1C232.08 366.6 221.45 362.98 211.29 358.77C210.1 358.27 207.68 357.51 204.89 356.63C187.46 351.12 173.17 345.92 174.73 338.06C175.39 334.78 177.28 331.96 180.05 330.11C182.8 328.28 186.1 327.61 189.34 328.24L211.32 331.02L173.76 291.44C169.41 286.85 164.9 282.11 164.77 274.47C164.7 270.28 167.24 267.3 171.72 266.28C175.29 265.45 178.61 266.56 180.76 267.63C185.94 270.18 189.84 274.52 193.62 278.71C194.55 279.74 195.47 280.77 196.4 281.74L209.92 295.99C210.44 293.91 211.54 291.97 213.18 290.42C215.96 287.79 219.61 286.4 223.42 286.49C225.73 286.55 227.94 287.15 229.91 288.23C229.54 285.96 229.66 283.55 230.89 281.12C232.55 277.87 236.3 276.2 239.28 275.98C242.7 275.73 246.18 277.07 248.55 279.57L249.15 280.2C249.64 277.85 250.85 275.72 252.67 274.07C257.28 269.85 264.63 270.22 269.06 274.88C270.57 276.47 272.1 278.05 273.63 279.63C278.52 284.68 283.58 289.91 288.03 295.57C300.37 311.27 313.56 331.92 305.93 352.4C302.54 361.54 295.15 369.26 286.17 373.05C280.92 375.27 275.54 376.13 270.26 376.13V376.11ZM186.98 333.01C183.48 333.01 180.34 335.48 179.63 339.04C179.48 339.79 181.01 342.05 187.87 345.19C193.63 347.83 201.01 350.16 206.4 351.86C209.42 352.82 211.81 353.57 213.2 354.15C223.21 358.3 233.75 361.89 243.95 365.37L247.47 366.57C258.72 370.42 271.89 373.64 284.22 368.42C291.96 365.15 298.32 358.51 301.24 350.63C308 332.47 295.62 313.3 284.09 298.63C279.8 293.17 274.83 288.04 270.03 283.08C268.49 281.49 266.95 279.9 265.43 278.3C262.87 275.6 258.65 275.34 256.04 277.74C254.73 278.94 253.97 280.57 253.91 282.34C253.85 284.11 254.48 285.8 255.7 287.09C256.65 288.1 256.61 289.68 255.61 290.63C254.61 291.58 253.03 291.54 252.08 290.54L244.93 283C243.58 281.58 241.6 280.82 239.65 280.96C237.83 281.09 235.98 282.13 235.35 283.38C234.23 285.6 234.75 288.01 235.89 290.94C237.04 293.89 238.3 296.06 239.73 297.57C240.68 298.58 240.64 300.16 239.64 301.11C238.64 302.06 237.06 302.02 236.11 301.02H236.1L229.82 294.39C228.11 292.58 225.79 291.55 223.3 291.49C220.8 291.43 218.44 292.33 216.63 294.05C214.56 296.01 214 299.05 215.23 301.62C215.76 302.73 215.39 304.13 214.38 304.83C213.34 305.55 211.96 305.41 211.08 304.49L192.77 285.2C191.81 284.19 190.86 283.14 189.9 282.07C186.44 278.23 182.86 274.26 178.54 272.13C176.52 271.13 174.5 270.79 172.83 271.17C169.72 271.88 169.75 273.65 169.76 274.41C169.86 280.1 173.34 283.77 177.38 288.02L217.53 330.33C217.63 330.41 217.73 330.5 217.82 330.59L220.2 333.11C220.95 333.91 221.1 335.1 220.56 336.05C220.02 337.01 218.93 337.5 217.85 337.26L213 336.28L188.63 333.2C188.57 333.2 188.51 333.18 188.45 333.17C187.95 333.07 187.46 333.02 186.98 333.02V333.01ZM210.71 303.75C210.71 303.75 210.71 303.75 210.71 303.76C210.71 303.76 210.71 303.76 210.71 303.75Z" fill="black"/>
<path d="M311.258 332.5L264.834 376.555L282.511 395.182L328.935 351.128L311.258 332.5Z" fill="#F9CB30"/>
<path d="M282.58 397.79C282.58 397.79 282.54 397.79 282.51 397.79C281.85 397.77 281.22 397.49 280.76 397.01L263.08 378.38C262.13 377.38 262.17 375.8 263.17 374.85L309.6 330.8C310.6 329.85 312.18 329.89 313.13 330.89L330.81 349.52C331.27 350 331.51 350.64 331.5 351.31C331.49 351.98 331.2 352.6 330.72 353.06L284.29 397.11C283.83 397.55 283.21 397.8 282.57 397.8L282.58 397.79ZM268.44 376.75L282.67 391.75L325.47 351.14L311.23 336.14L268.43 376.75H268.44Z" fill="black"/>
<path d="M223.15 316.94C222.46 316.94 221.78 316.66 221.28 316.11L207.9 301.12C206.98 300.09 207.07 298.51 208.1 297.59C209.13 296.67 210.71 296.76 211.63 297.79L225.01 312.78C225.93 313.81 225.84 315.39 224.81 316.31C224.33 316.74 223.74 316.94 223.15 316.94Z" fill="black"/>
<path d="M218.39 337.3C218.22 337.3 218.04 337.28 217.86 337.24H217.82C216.47 336.94 215.61 335.61 215.9 334.26C216.19 332.91 217.52 332.06 218.87 332.34C220.22 332.63 221.09 333.97 220.8 335.32C220.55 336.49 219.52 337.3 218.37 337.3H218.39Z" fill="black"/>
</svg>
