<svg width="355" height="378" viewBox="0 0 355 378" fill="none" xmlns="http://www.w3.org/2000/svg">
<path d="M352.5 2.5H2.5V366.75H352.5V2.5Z" fill="white"/>
<path d="M352.5 369.25H2.5C1.12 369.25 0 368.13 0 366.75V2.5C0 1.12 1.12 0 2.5 0H352.5C353.88 0 355 1.12 355 2.5V366.75C355 368.13 353.88 369.25 352.5 369.25ZM5 364.25H350V5H5V364.25Z" fill="black"/>
<path d="M352.03 2.5H2.97V63.5H352.03V2.5Z" fill="#F2F2F2"/>
<path d="M352.03 66H2.97C1.59 66 0.470001 64.88 0.470001 63.5V2.5C0.470001 1.12 1.59 0 2.97 0H352.03C353.41 0 354.53 1.12 354.53 2.5V63.5C354.53 64.88 353.41 66 352.03 66ZM5.47 61H349.53V5H5.47V61Z" fill="black"/>
<path d="M302.5 228.9H52.5V298.9H302.5V228.9Z" fill="#F9CB30"/>
<path d="M302.5 301.4H52.5C51.12 301.4 50 300.28 50 298.9V228.9C50 227.52 51.12 226.4 52.5 226.4H302.5C303.88 226.4 305 227.52 305 228.9V298.9C305 300.28 303.88 301.4 302.5 301.4ZM55 296.4H300V231.4H55V296.4Z" fill="black"/>
<path d="M87.57 274.4V256.7H80.61V253.4H98.43V256.7H91.47V274.4H87.57Z" fill="black"/>
<path d="M97.35 274.4L106.8 253.4H110.64L120.12 274.4H116.01L107.91 255.47H109.47L101.34 274.4H97.35ZM101.7 269.54L102.78 266.48H114.09L115.14 269.54H101.7Z" fill="black"/>
<path d="M122.79 274.4V253.4H131.43C133.29 253.4 134.88 253.69 136.22 254.28C137.55 254.87 138.57 255.73 139.29 256.85C140.01 257.97 140.37 259.31 140.37 260.87C140.37 262.43 140.01 263.74 139.29 264.85C138.57 265.96 137.54 266.82 136.22 267.43C134.89 268.04 133.29 268.35 131.43 268.35H124.98L126.69 266.55V274.41H122.79V274.4ZM126.69 266.96L124.98 265.04H131.25C132.97 265.04 134.27 264.68 135.14 263.95C136.01 263.22 136.45 262.2 136.45 260.87C136.45 259.54 136.01 258.53 135.14 257.79C134.27 257.06 132.97 256.7 131.25 256.7H124.98L126.69 254.78V266.96Z" fill="black"/>
<path d="M157.11 274.4V256.7H150.15V253.4H167.97V256.7H161.01V274.4H157.11Z" fill="black"/>
<path d="M180.45 274.7C178.83 274.7 177.32 274.43 175.93 273.89C174.54 273.35 173.33 272.59 172.31 271.61C171.29 270.63 170.5 269.49 169.94 268.18C169.38 266.87 169.1 265.44 169.1 263.9C169.1 262.36 169.38 260.9 169.94 259.6C170.5 258.29 171.29 257.15 172.31 256.18C173.33 255.21 174.53 254.45 175.91 253.91C177.29 253.37 178.8 253.1 180.44 253.1C182.08 253.1 183.56 253.36 184.94 253.89C186.32 254.42 187.51 255.17 188.52 256.14C189.53 257.11 190.31 258.26 190.87 259.57C191.43 260.89 191.71 262.33 191.71 263.89C191.71 265.45 191.43 266.89 190.87 268.19C190.31 269.5 189.52 270.65 188.52 271.63C187.51 272.61 186.31 273.37 184.94 273.89C183.56 274.42 182.06 274.68 180.44 274.68L180.45 274.7ZM180.45 271.28C181.51 271.28 182.48 271.1 183.37 270.74C184.26 270.38 185.04 269.87 185.7 269.21C186.36 268.55 186.87 267.77 187.24 266.87C187.61 265.97 187.79 264.98 187.79 263.9C187.79 262.82 187.61 261.83 187.25 260.93C186.89 260.03 186.37 259.25 185.7 258.59C185.03 257.93 184.25 257.42 183.36 257.06C182.47 256.7 181.49 256.52 180.44 256.52C179.39 256.52 178.39 256.7 177.48 257.06C176.57 257.42 175.78 257.94 175.13 258.6C174.47 259.27 173.95 260.05 173.57 260.94C173.19 261.83 173 262.82 173 263.9C173 264.98 173.19 265.94 173.57 266.84C173.95 267.74 174.47 268.52 175.13 269.19C175.79 269.86 176.57 270.38 177.48 270.73C178.39 271.09 179.37 271.27 180.44 271.27L180.45 271.28Z" fill="black"/>
<path d="M210.66 274.7C209.02 274.7 207.45 274.46 205.96 273.99C204.47 273.52 203.28 272.92 202.38 272.18L203.73 269.15C204.57 269.81 205.61 270.36 206.85 270.8C208.09 271.24 209.36 271.46 210.66 271.46C211.76 271.46 212.65 271.34 213.33 271.1C214.01 270.86 214.51 270.53 214.83 270.12C215.15 269.71 215.31 269.25 215.31 268.73C215.31 268.09 215.08 267.57 214.62 267.19C214.16 266.8 213.56 266.49 212.83 266.26C212.1 266.03 211.29 265.82 210.4 265.63C209.51 265.44 208.62 265.21 207.73 264.92C206.84 264.64 206.02 264.29 205.29 263.86C204.55 263.43 203.96 262.86 203.5 262.14C203.05 261.42 202.83 260.5 202.83 259.38C202.83 258.26 203.13 257.2 203.75 256.25C204.36 255.3 205.29 254.54 206.54 253.97C207.79 253.4 209.37 253.12 211.29 253.12C212.55 253.12 213.8 253.28 215.04 253.6C216.28 253.92 217.36 254.38 218.28 254.98L217.05 258.01C216.11 257.45 215.14 257.04 214.14 256.76C213.14 256.49 212.18 256.36 211.26 256.36C210.2 256.36 209.33 256.49 208.65 256.75C207.97 257.01 207.48 257.36 207.17 257.79C206.86 258.22 206.71 258.7 206.71 259.21C206.71 259.85 206.94 260.37 207.38 260.75C207.83 261.14 208.42 261.45 209.15 261.67C209.88 261.89 210.69 262.1 211.59 262.3C212.49 262.5 213.38 262.74 214.26 263.01C215.14 263.28 215.95 263.63 216.69 264.06C217.43 264.49 218.02 265.06 218.48 265.77C218.93 266.48 219.15 267.39 219.15 268.48C219.15 269.57 218.84 270.64 218.23 271.59C217.62 272.54 216.69 273.3 215.43 273.87C214.17 274.44 212.58 274.72 210.66 274.72V274.7Z" fill="black"/>
<path d="M223.02 274.4V253.4H226.92V274.4H223.02Z" fill="black"/>
<path d="M242.4 274.7C240.76 274.7 239.25 274.44 237.89 273.91C236.52 273.38 235.32 272.62 234.3 271.65C233.28 270.68 232.49 269.53 231.93 268.23C231.37 266.93 231.09 265.49 231.09 263.91C231.09 262.33 231.37 260.89 231.93 259.59C232.49 258.29 233.28 257.15 234.31 256.17C235.34 255.19 236.54 254.44 237.91 253.91C239.28 253.38 240.81 253.12 242.49 253.12C244.17 253.12 245.84 253.41 247.27 253.99C248.7 254.57 249.9 255.42 250.89 256.54L248.43 258.94C247.61 258.12 246.72 257.52 245.77 257.13C244.82 256.74 243.77 256.55 242.64 256.55C241.51 256.55 240.49 256.73 239.56 257.09C238.63 257.45 237.82 257.96 237.14 258.62C236.46 259.28 235.93 260.06 235.55 260.96C235.17 261.86 234.98 262.85 234.98 263.93C234.98 265.01 235.17 265.97 235.55 266.89C235.93 267.8 236.46 268.59 237.14 269.24C237.82 269.9 238.62 270.41 239.54 270.77C240.46 271.13 241.48 271.31 242.6 271.31C243.64 271.31 244.64 271.14 245.62 270.81C246.59 270.48 247.51 269.93 248.39 269.14L250.58 272.05C249.5 272.93 248.24 273.59 246.8 274.05C245.36 274.51 243.89 274.72 242.39 274.72L242.4 274.7ZM246.93 271.52V263.69H250.59V272.03L246.93 271.52Z" fill="black"/>
<path d="M255.75 274.4V253.4H258.96L272.13 269.6H270.54V253.4H274.38V274.4H271.17L258.03 258.2H259.62V274.4H255.75Z" fill="black"/>
<path d="M252.5 127.96H98.5C97.12 127.96 96 126.84 96 125.46C96 124.08 97.12 122.96 98.5 122.96H252.5C253.88 122.96 255 124.08 255 125.46C255 126.84 253.88 127.96 252.5 127.96Z" fill="black"/>
<path d="M227.25 168.96H123.75C122.37 168.96 121.25 167.84 121.25 166.46C121.25 165.08 122.37 163.96 123.75 163.96H227.25C228.63 163.96 229.75 165.08 229.75 166.46C229.75 167.84 228.63 168.96 227.25 168.96Z" fill="black"/>
<path d="M29 37.5C31.4853 37.5 33.5 35.4853 33.5 33C33.5 30.5147 31.4853 28.5 29 28.5C26.5147 28.5 24.5 30.5147 24.5 33C24.5 35.4853 26.5147 37.5 29 37.5Z" fill="black"/>
<path d="M29 40C25.14 40 22 36.86 22 33C22 29.14 25.14 26 29 26C32.86 26 36 29.14 36 33C36 36.86 32.86 40 29 40ZM29 31C27.9 31 27 31.9 27 33C27 34.1 27.9 35 29 35C30.1 35 31 34.1 31 33C31 31.9 30.1 31 29 31Z" fill="black"/>
<path d="M61.5 37.5C63.9853 37.5 66 35.4853 66 33C66 30.5147 63.9853 28.5 61.5 28.5C59.0147 28.5 57 30.5147 57 33C57 35.4853 59.0147 37.5 61.5 37.5Z" fill="black"/>
<path d="M61.5 40C57.64 40 54.5 36.86 54.5 33C54.5 29.14 57.64 26 61.5 26C65.36 26 68.5 29.14 68.5 33C68.5 36.86 65.36 40 61.5 40ZM61.5 31C60.4 31 59.5 31.9 59.5 33C59.5 34.1 60.4 35 61.5 35C62.6 35 63.5 34.1 63.5 33C63.5 31.9 62.6 31 61.5 31Z" fill="black"/>
<path d="M94 37.5C96.4853 37.5 98.5 35.4853 98.5 33C98.5 30.5147 96.4853 28.5 94 28.5C91.5147 28.5 89.5 30.5147 89.5 33C89.5 35.4853 91.5147 37.5 94 37.5Z" fill="black"/>
<path d="M94 40C90.14 40 87 36.86 87 33C87 29.14 90.14 26 94 26C97.86 26 101 29.14 101 33C101 36.86 97.86 40 94 40ZM94 31C92.9 31 92 31.9 92 33C92 34.1 92.9 35 94 35C95.1 35 96 34.1 96 33C96 31.9 95.1 31 94 31Z" fill="black"/>
<path d="M313.44 219.21C312.67 219.21 311.91 218.86 311.42 218.19C310.6 217.08 310.85 215.51 311.96 214.7L332.1 199.94C333.21 199.13 334.78 199.36 335.59 200.48C336.41 201.59 336.16 203.16 335.05 203.97L314.91 218.73C314.46 219.06 313.95 219.21 313.43 219.21H313.44Z" fill="black"/>
<path d="M296.74 213.19H296.71C295.33 213.17 294.22 212.04 294.24 210.66L294.5 190.69C294.52 189.32 295.63 188.22 297 188.22H297.03C298.41 188.24 299.52 189.37 299.5 190.75L299.24 210.72C299.22 212.09 298.11 213.19 296.74 213.19Z" fill="black"/>
<path d="M318.6 236.41C317.22 236.41 316.1 235.29 316.1 233.91C316.1 232.53 317.22 231.41 318.6 231.41H337.33V231.4C338.71 231.4 339.83 232.52 339.83 233.9C339.83 235.28 338.71 236.4 337.33 236.4H318.6V236.41Z" fill="black"/>
<path d="M340.5 339.64L292.89 289.91L292.84 358.75L306.79 340.79L320.54 375.09L331.76 370.59L318.01 336.29L340.5 339.64Z" fill="#F2F2F2"/>
<path d="M320.54 377.59C320.21 377.59 319.87 377.52 319.56 377.39C318.95 377.13 318.47 376.64 318.22 376.02L306.09 345.76L294.82 360.28C294.16 361.12 293.04 361.46 292.03 361.11C291.02 360.76 290.34 359.81 290.34 358.74L290.39 289.9C290.39 288.88 291.01 287.96 291.96 287.58C292.91 287.2 293.99 287.43 294.7 288.17L342.31 337.9C343.05 338.67 343.22 339.83 342.72 340.78C342.23 341.73 341.19 342.27 340.13 342.1L321.95 339.4L334.08 369.66C334.59 370.94 333.97 372.4 332.69 372.91L321.47 377.41C321.17 377.53 320.86 377.59 320.54 377.59ZM306.78 338.29C306.9 338.29 307.01 338.29 307.13 338.31C308.02 338.43 308.77 339.02 309.1 339.85L321.93 371.83L328.51 369.19L315.68 337.21C315.35 336.38 315.48 335.43 316.04 334.73C316.6 334.03 317.49 333.68 318.37 333.81L333.64 336.08L295.39 296.12L295.35 351.44L304.82 339.25C305.3 338.63 306.03 338.28 306.79 338.28L306.78 338.29Z" fill="black"/>
</svg>
