<?xml version="1.0" encoding="UTF-8"?>
<svg id="_Слой_1" data-name="Слой 1" xmlns="http://www.w3.org/2000/svg" viewBox="0 0 295 214.21">
  <defs>
    <style>
      .cls-1 {
        fill: #f7c930;
      }
    </style>
  </defs>
  <g>
    <path class="cls-1" d="M123.31,115.58c-16.15,16.14-36.87,32.21-51.22,32.21-26.31,0-47.71-19.15-47.71-42.68s21.4-42.68,47.71-42.68c17.49,0,44.47,23.91,61.08,42.68,3.02,3.41,5.85,6.97,8.76,10.47,5.26,6.31,10.97,12.3,16.85,18.04s12.39,11.53,19.11,16.66,14.23,10.07,22.13,13.7c7.16,3.3,14.94,5.69,22.88,5.69,38.37,0,69.59-28.96,69.59-64.57s-31.22-64.57-69.59-64.57c-23.02,0-48.42,20.51-65.28,37.19l14.65,16.33c16.07-15.94,36.46-31.63,50.63-31.63,26.31,0,47.71,19.15,47.71,42.68s-21.4,42.68-47.71,42.68c-17.49,0-44.47-23.91-61.08-42.68-4.74-5.35-9.53-11.49-14.33-16.79-15.19-16.77-47.1-47.78-75.41-47.78C33.72,40.54,2.5,69.51,2.5,105.11s31.22,64.57,69.59,64.57c23.29,0,49.02-20.99,65.87-37.77l-14.65-16.32Z"/>
    <path d="M222.91,172.18c-7.45,0-15.28-1.94-23.93-5.92-7.25-3.34-14.64-7.91-22.6-13.99-6.41-4.89-12.73-10.41-19.34-16.86-6.64-6.49-12.21-12.45-17.02-18.23-.87-1.05-1.74-2.1-2.6-3.15-1.98-2.41-4.03-4.9-6.11-7.26-18.43-20.82-43.89-41.84-59.21-41.84-24.93,0-45.21,18.02-45.21,40.18s20.28,40.18,45.21,40.18c11.23,0,29.71-11.77,49.45-31.48,.49-.48,1.13-.75,1.83-.73,.69,.02,1.33,.32,1.79,.83l14.65,16.32c.89,.99,.85,2.5-.1,3.44-17.64,17.56-43.69,38.5-67.63,38.5C32.34,172.18,0,142.09,0,105.11S32.34,38.04,72.09,38.04c28.92,0,60.82,30.45,77.26,48.6,2.63,2.9,5.28,6.08,7.84,9.16,2.14,2.57,4.35,5.22,6.5,7.65,18.43,20.82,43.89,41.84,59.21,41.84,24.93,0,45.21-18.02,45.21-40.18s-20.28-40.18-45.21-40.18c-11.09,0-29.36,11.55-48.87,30.9-.49,.48-1.17,.73-1.83,.72-.68-.02-1.33-.32-1.79-.83l-14.65-16.33c-.89-.99-.85-2.51,.1-3.45,17.48-17.3,43.3-37.91,67.04-37.91,39.75,0,72.09,30.09,72.09,67.07s-32.34,67.07-72.09,67.07ZM72.09,59.93c18.03,0,45.18,23.45,62.95,43.52,2.15,2.43,4.22,4.95,6.23,7.4,.86,1.04,1.71,2.09,2.58,3.13,4.7,5.64,10.15,11.48,16.67,17.85,6.46,6.31,12.64,11.7,18.88,16.47,7.66,5.85,14.75,10.24,21.66,13.42,7.98,3.67,15.12,5.46,21.84,5.46,37,0,67.09-27.84,67.09-62.07s-30.1-62.07-67.09-62.07c-21.31,0-45.08,18.54-61.82,34.8l11.31,12.6c12.56-12.19,34.16-30.51,50.52-30.51,27.68,0,50.21,20.27,50.21,45.18s-22.52,45.18-50.21,45.18c-18.03,0-45.18-23.45-62.95-43.52-2.2-2.48-4.44-5.17-6.6-7.76-2.53-3.04-5.15-6.17-7.71-9-12.79-14.12-45.55-46.96-73.55-46.96-37,0-67.09,27.84-67.09,62.07s30.1,62.07,67.09,62.07c21.51,0,45.51-18.85,62.42-35.38l-11.31-12.6c-10.92,10.65-34.1,31.09-51.11,31.09-27.68,0-50.21-20.27-50.21-45.18s22.52-45.18,50.21-45.18Z"/>
  </g>
  <g>
    <path d="M151.75,46.78c-.65,0-1.3-.25-1.79-.75-.96-.99-.95-2.57,.04-3.54,17.37-16.98,35.36-28.52,53.48-34.32,19.24-6.16,39.08-5.79,55.66,.84-.98-1.81-1.94-3.53-3.01-5.09-.78-1.14-.49-2.69,.65-3.48,1.14-.78,2.7-.49,3.48,.65,1.38,2.01,2.56,4.2,3.71,6.32,1.14,2.1,2.21,4.08,3.44,5.87,.65,.96,.57,2.24-.21,3.09-.78,.86-2.05,1.07-3.06,.51-16.67-9.2-38.22-10.64-59.12-3.95-17.37,5.56-34.7,16.71-51.51,33.14-.49,.48-1.12,.71-1.75,.71Z"/>
    <path d="M249.98,18.78c-1.28,0-2.37-.98-2.49-2.27-.13-1.38,.89-2.59,2.26-2.72l14-1.28c1.38-.11,2.59,.89,2.72,2.26,.13,1.38-.89,2.59-2.26,2.72l-14,1.28c-.08,0-.15,.01-.23,.01Z"/>
  </g>
  <g>
    <path d="M37.43,214.21c-.8,0-1.58-.38-2.06-1.09-1.38-2.01-2.56-4.2-3.71-6.32-1.14-2.1-2.21-4.08-3.44-5.87-.65-.96-.57-2.24,.21-3.09,.78-.86,2.04-1.07,3.06-.51,16.67,9.2,38.22,10.64,59.12,3.95,17.37-5.56,34.7-16.71,51.51-33.14,.99-.96,2.57-.95,3.54,.04s.95,2.57-.04,3.54c-17.37,16.98-35.36,28.52-53.48,34.32-19.25,6.16-39.08,5.79-55.66-.84,.98,1.81,1.94,3.53,3.01,5.09,.78,1.14,.49,2.69-.65,3.48-.43,.3-.92,.44-1.41,.44Z"/>
    <path d="M31.64,201.72c-1.28,0-2.37-.97-2.49-2.27-.13-1.38,.89-2.59,2.26-2.72l14-1.28c1.38-.12,2.59,.89,2.72,2.26,.13,1.38-.89,2.59-2.26,2.72l-14,1.28c-.08,0-.15,.01-.23,.01Z"/>
  </g>
</svg>